<svg id="svg" version="1.1" xmlns="http://www.w3.org/2000/svg" xmlns:xlink="http://www.w3.org/1999/xlink" width="400" height="400" viewBox="0, 0, 400,400"><g id="svgg"><path id="path0" d="M190.800 26.813 C 188.337 27.432,186.255 27.569,179.162 27.583 C 171.314 27.598,170.463 27.667,169.862 28.331 C 168.766 29.542,168.886 45.017,170.008 47.216 L 170.816 48.800 179.146 48.800 C 186.749 48.800,187.680 48.877,189.837 49.681 C 192.044 50.504,192.888 50.564,202.589 50.581 L 212.978 50.600 214.465 48.200 L 215.951 45.800 215.975 37.680 C 216.012 25.444,216.600 25.989,203.411 26.029 C 195.393 26.054,193.303 26.184,190.800 26.813 M19.681 100.300 C 17.638 103.206,17.599 103.439,17.609 112.880 C 17.616 120.272,17.753 122.413,18.409 125.380 C 19.057 128.314,19.200 130.463,19.200 137.296 C 19.200 144.870,19.274 145.777,20.008 147.216 L 20.816 148.800 29.200 148.800 L 37.584 148.800 38.392 147.216 C 39.123 145.782,39.200 144.864,39.205 137.516 C 39.209 131.001,39.366 128.650,40.000 125.600 C 40.647 122.484,40.790 120.195,40.795 112.880 C 40.800 103.400,40.754 103.129,38.663 100.300 L 37.850 99.200 29.152 99.200 L 20.454 99.200 19.681 100.300 M344.915 100.100 C 342.137 103.132,341.306 115.135,343.199 124.886 C 343.840 128.188,343.998 130.648,343.999 137.346 C 344.000 145.183,344.053 145.786,344.874 147.246 L 345.747 148.800 354.200 148.800 L 362.652 148.800 363.326 147.386 C 363.891 146.201,364.000 144.626,364.000 137.612 C 364.000 130.369,364.115 128.806,364.856 125.925 C 366.222 120.623,366.445 105.251,365.192 102.757 C 363.333 99.056,363.780 99.200,354.200 99.200 C 345.937 99.200,345.720 99.221,344.915 100.100 M192.592 224.588 C 191.268 224.876,189.491 225.402,188.644 225.756 C 187.395 226.278,185.529 226.400,178.825 226.400 L 170.548 226.400 169.874 227.814 C 168.780 230.107,168.883 245.011,170.008 247.216 L 170.816 248.800 179.146 248.800 C 186.734 248.800,187.685 248.878,189.837 249.677 C 193.253 250.945,211.976 251.307,213.278 250.131 C 215.711 247.932,216.054 246.235,215.922 237.034 L 215.800 228.528 214.296 226.264 L 212.792 224.000 203.896 224.032 C 198.168 224.052,194.143 224.250,192.592 224.588 " stroke="none" fill="#b9b9b9" fill-rule="evenodd"></path><path id="path1" d="M144.808 102.384 C 144.072 103.827,144.000 104.729,144.000 112.514 C 144.000 123.783,142.675 122.672,156.400 122.904 C 164.759 123.045,167.423 123.221,169.000 123.737 C 171.983 124.713,211.072 124.721,214.400 123.746 C 216.058 123.261,219.244 123.040,227.336 122.851 C 240.913 122.534,239.600 123.643,239.600 112.491 C 239.600 104.408,239.583 104.241,238.583 102.535 L 237.566 100.800 191.591 100.800 L 145.616 100.800 144.808 102.384 M44.516 125.521 C 43.152 126.384,42.889 128.498,42.744 139.766 C 42.588 151.899,42.604 151.986,44.726 150.201 L 45.952 149.169 54.476 149.293 C 61.835 149.400,63.433 149.539,66.164 150.309 C 69.265 151.182,69.772 151.200,91.764 151.199 L 114.200 151.198 117.929 150.199 C 121.331 149.288,122.376 149.200,129.848 149.200 L 138.039 149.200 138.811 147.500 C 139.492 145.999,139.583 144.833,139.591 137.544 C 139.603 126.431,140.684 127.463,128.736 127.174 C 121.966 127.009,118.584 126.757,116.432 126.254 C 113.438 125.555,83.799 125.538,54.855 126.220 C 47.154 126.401,45.847 126.346,45.455 125.823 C 45.195 125.476,44.792 125.346,44.516 125.521 M337.840 125.840 C 337.647 126.344,336.295 126.398,328.507 126.217 C 299.199 125.533,269.747 125.558,266.755 126.269 C 264.510 126.804,261.642 127.004,254.810 127.101 C 242.920 127.272,244.000 126.192,244.000 137.908 C 244.000 145.620,244.095 147.037,244.678 148.024 L 245.356 149.172 254.178 149.294 C 261.854 149.400,263.411 149.532,266.164 150.308 C 269.266 151.183,269.767 151.200,291.764 151.199 L 314.200 151.198 317.929 150.199 C 321.308 149.294,322.397 149.200,329.538 149.200 L 337.418 149.200 338.868 150.395 C 340.829 152.012,340.800 152.173,340.800 139.800 C 340.800 130.335,340.723 129.086,340.039 127.491 C 339.234 125.614,338.219 124.852,337.840 125.840 M167.800 151.485 C 166.125 151.897,162.319 152.127,155.200 152.247 C 146.804 152.389,144.770 152.535,143.700 153.072 L 142.400 153.726 142.400 162.380 L 142.400 171.033 144.174 172.775 L 145.948 174.516 157.074 174.190 C 171.282 173.774,212.109 173.775,226.329 174.192 L 237.259 174.512 239.229 172.571 L 241.200 170.630 241.200 162.309 L 241.200 153.988 239.900 153.196 C 238.712 152.471,237.845 152.401,229.800 152.380 C 223.536 152.363,220.020 152.173,217.600 151.720 C 212.653 150.795,171.397 150.600,167.800 151.485 " stroke="none" fill="#9c501a" fill-rule="evenodd"></path><path id="path2" d="M217.905 72.200 C 215.698 76.411,215.766 76.400,191.608 76.400 C 168.018 76.400,168.399 76.449,165.991 73.124 L 164.872 71.579 163.929 73.289 L 162.986 75.000 154.193 75.201 C 141.450 75.492,142.278 74.680,141.965 87.199 C 141.749 95.807,141.650 96.803,140.788 99.000 C 139.915 101.226,139.830 102.134,139.623 111.533 C 139.416 120.953,139.345 121.706,138.625 122.232 C 137.723 122.890,72.193 122.651,68.704 121.977 C 66.930 121.634,66.691 121.693,64.973 122.905 L 63.137 124.200 54.469 124.322 C 45.637 124.446,44.976 124.550,45.435 125.747 C 45.674 126.370,46.476 126.411,54.748 126.219 C 84.166 125.538,113.438 125.555,116.432 126.254 C 118.584 126.757,121.966 127.009,128.736 127.174 C 140.684 127.463,139.603 126.431,139.591 137.544 C 139.583 144.833,139.492 145.999,138.811 147.500 L 138.039 149.200 129.848 149.200 C 122.376 149.200,121.331 149.288,117.929 150.199 L 114.200 151.198 91.764 151.199 C 69.772 151.200,69.265 151.182,66.164 150.309 C 63.434 149.539,61.834 149.400,54.498 149.293 L 45.995 149.170 44.647 150.245 L 43.299 151.321 43.063 162.961 C 42.934 169.362,42.707 175.210,42.560 175.956 L 42.293 177.312 44.118 176.056 L 45.944 174.800 91.807 174.800 L 137.670 174.800 139.797 176.911 L 141.925 179.022 142.103 188.811 C 142.307 199.984,142.669 202.040,144.254 201.002 C 144.999 200.513,146.793 200.400,153.794 200.400 L 162.417 200.400 164.608 198.277 L 166.800 196.155 166.800 187.851 C 166.800 178.708,166.833 178.561,169.281 176.787 L 170.920 175.600 191.571 175.600 C 214.143 175.600,212.599 175.448,215.300 177.936 L 216.400 178.950 216.400 187.492 L 216.400 196.035 218.621 198.203 L 220.841 200.371 229.721 200.503 C 234.604 200.576,238.972 200.775,239.426 200.945 C 240.738 201.437,241.134 198.614,241.183 188.400 L 241.226 179.400 243.501 177.100 L 245.775 174.800 291.714 174.800 L 337.653 174.800 338.964 175.800 C 339.686 176.350,340.349 176.800,340.438 176.800 C 340.527 176.800,340.548 171.175,340.483 164.300 L 340.367 151.800 338.917 150.500 L 337.467 149.200 329.562 149.200 C 322.395 149.200,321.310 149.293,317.929 150.199 L 314.200 151.198 291.764 151.199 C 269.767 151.200,269.266 151.183,266.164 150.308 C 263.411 149.532,261.854 149.400,254.178 149.294 L 245.356 149.172 244.678 148.024 C 244.095 147.037,244.000 145.620,244.000 137.908 C 244.000 126.192,242.920 127.272,254.810 127.101 C 261.642 127.004,264.510 126.804,266.755 126.269 C 269.818 125.541,272.598 125.533,328.600 126.106 L 337.800 126.200 337.928 125.300 L 338.056 124.400 329.528 124.399 C 320.515 124.399,320.364 124.372,317.537 122.320 C 316.801 121.785,316.257 121.712,315.000 121.976 C 314.120 122.161,298.086 122.421,279.369 122.556 L 245.339 122.799 244.499 121.900 C 243.700 121.044,243.651 120.505,243.518 111.000 C 243.385 101.560,243.323 100.866,242.419 98.600 C 241.540 96.398,241.441 95.457,241.230 87.200 C 240.908 74.605,241.521 75.200,228.859 75.200 L 220.492 75.200 219.794 74.135 C 219.410 73.549,218.969 72.604,218.815 72.035 L 218.534 71.000 217.905 72.200 M112.573 86.600 C 112.573 91.880,112.630 93.985,112.699 91.277 C 112.768 88.569,112.768 84.249,112.699 81.677 C 112.629 79.105,112.572 81.320,112.573 86.600 M238.583 102.535 C 239.583 104.241,239.600 104.408,239.600 112.491 C 239.600 123.643,240.913 122.534,227.336 122.851 C 219.244 123.040,216.058 123.261,214.400 123.746 C 211.072 124.721,171.983 124.713,169.000 123.737 C 167.423 123.221,164.759 123.045,156.400 122.904 C 142.675 122.672,144.000 123.783,144.000 112.514 C 144.000 104.729,144.072 103.827,144.808 102.384 L 145.616 100.800 191.591 100.800 L 237.566 100.800 238.583 102.535 M165.213 128.207 L 167.200 129.213 167.200 137.523 L 167.200 145.833 164.991 146.917 C 162.799 147.992,162.716 148.000,154.246 148.000 L 145.709 148.000 144.655 146.945 L 143.600 145.891 143.600 137.471 C 143.600 126.224,142.585 127.200,154.283 127.200 C 163.046 127.200,163.267 127.220,165.213 128.207 M238.800 128.000 C 240.087 129.287,240.027 145.694,238.730 147.074 C 237.351 148.543,221.684 148.497,218.500 147.014 L 216.400 146.037 216.400 137.497 L 216.400 128.958 218.100 128.104 C 220.646 126.825,237.540 126.740,238.800 128.000 M217.600 151.720 C 220.020 152.173,223.536 152.363,229.800 152.380 C 237.845 152.401,238.712 152.471,239.900 153.196 L 241.200 153.988 241.200 162.309 L 241.200 170.630 239.229 172.571 L 237.259 174.512 226.329 174.192 C 212.109 173.775,171.282 173.774,157.074 174.190 L 145.948 174.516 144.174 172.775 L 142.400 171.033 142.400 162.380 L 142.400 153.726 143.700 153.072 C 144.770 152.535,146.804 152.389,155.200 152.247 C 162.319 152.127,166.125 151.897,167.800 151.485 C 171.397 150.600,212.653 150.795,217.600 151.720 M112.587 225.800 C 112.587 237.900,112.637 242.908,112.700 236.928 C 112.762 230.949,112.762 221.049,112.700 214.928 C 112.638 208.808,112.587 213.700,112.587 225.800 M168.971 326.869 L 167.160 328.538 167.280 337.970 L 167.400 347.402 168.400 348.401 L 169.399 349.400 191.094 349.513 C 218.921 349.658,216.400 350.870,216.400 337.351 C 216.400 324.261,218.331 325.200,191.411 325.200 L 170.782 325.200 168.971 326.869 M162.573 363.400 C 162.573 368.680,162.630 370.785,162.699 368.077 C 162.768 365.369,162.768 361.049,162.699 358.477 C 162.629 355.905,162.572 358.120,162.573 363.400 " stroke="none" fill="#641c1c" fill-rule="evenodd"></path><path id="path3" d="M194.323 22.609 C 194.170 22.762,188.009 23.003,180.631 23.144 L 167.217 23.400 166.109 24.508 L 165.000 25.617 164.875 35.767 L 164.751 45.916 166.775 49.951 L 168.800 53.985 168.800 62.562 L 168.800 71.139 169.836 72.369 L 170.871 73.600 191.803 73.600 L 212.735 73.600 213.567 72.253 C 214.341 71.002,214.400 70.316,214.400 62.626 C 214.400 54.501,214.418 54.323,215.362 53.073 C 215.892 52.373,216.927 50.630,217.662 49.200 L 219.000 46.600 219.000 36.200 C 219.000 25.024,218.870 23.895,217.495 23.116 C 216.516 22.562,194.841 22.087,194.323 22.609 M213.913 26.624 C 215.807 27.951,216.002 28.994,215.975 37.680 L 215.951 45.800 214.465 48.200 L 212.978 50.600 202.589 50.581 C 192.888 50.564,192.044 50.504,189.837 49.681 C 187.680 48.877,186.749 48.800,179.146 48.800 L 170.816 48.800 170.008 47.216 C 168.886 45.017,168.766 29.542,169.862 28.331 C 170.463 27.667,171.314 27.598,179.162 27.583 C 186.255 27.569,188.337 27.432,190.800 26.813 C 194.935 25.774,212.495 25.631,213.913 26.624 M312.493 51.600 C 312.493 52.370,312.575 52.685,312.676 52.300 C 312.776 51.915,312.776 51.285,312.676 50.900 C 312.575 50.515,312.493 50.830,312.493 51.600 M18.753 77.153 L 17.200 78.706 17.200 87.191 C 17.200 94.896,17.130 95.775,16.438 96.747 C 14.037 100.119,13.758 106.067,14.643 135.000 C 15.046 148.158,15.094 148.701,16.130 151.708 C 17.158 154.695,17.200 155.148,17.200 163.248 L 17.200 171.680 18.568 173.048 L 19.935 174.415 28.848 174.308 L 37.760 174.200 39.080 172.469 L 40.400 170.738 40.400 162.304 L 40.400 153.870 41.478 152.035 L 42.557 150.200 42.699 139.600 C 42.808 131.424,42.979 128.616,43.446 127.319 C 43.949 125.922,44.030 123.522,43.926 113.109 L 43.800 100.580 42.500 97.941 L 41.200 95.302 41.197 87.151 C 41.194 75.254,41.594 75.634,29.053 75.614 L 20.306 75.600 18.753 77.153 M343.651 77.391 L 342.000 79.182 342.000 87.742 C 342.000 94.669,341.891 96.392,341.429 96.776 C 339.233 98.598,338.073 122.909,339.971 127.333 C 340.739 129.123,340.801 130.041,340.807 139.733 L 340.814 150.200 342.007 152.364 L 343.200 154.528 343.200 162.785 L 343.200 171.042 344.435 172.721 L 345.669 174.400 354.216 174.400 C 366.580 174.400,366.000 174.963,366.000 162.951 C 366.000 154.873,366.027 154.596,367.076 152.031 C 368.129 149.457,368.161 149.125,368.557 136.600 C 369.506 106.606,369.107 98.481,366.585 96.387 C 366.105 95.989,366.000 94.368,366.000 87.370 C 366.000 74.970,366.638 75.600,354.071 75.600 L 345.302 75.600 343.651 77.391 M38.663 100.300 C 40.754 103.129,40.800 103.400,40.795 112.880 C 40.790 120.195,40.647 122.484,40.000 125.600 C 39.366 128.650,39.209 131.001,39.205 137.516 C 39.200 144.864,39.123 145.782,38.392 147.216 L 37.584 148.800 29.200 148.800 L 20.816 148.800 20.008 147.216 C 19.274 145.777,19.200 144.870,19.200 137.296 C 19.200 130.463,19.057 128.314,18.409 125.380 C 17.753 122.413,17.616 120.272,17.609 112.880 C 17.599 103.439,17.638 103.206,19.681 100.300 L 20.454 99.200 29.152 99.200 L 37.850 99.200 38.663 100.300 M363.485 100.100 C 366.330 103.205,367.079 117.298,364.856 125.925 C 364.115 128.806,364.000 130.369,364.000 137.612 C 364.000 144.626,363.891 146.201,363.326 147.386 L 362.652 148.800 354.200 148.800 L 345.747 148.800 344.874 147.246 C 344.053 145.786,344.000 145.183,343.999 137.346 C 343.998 130.648,343.840 128.188,343.199 124.886 C 341.997 118.694,342.025 105.115,343.245 102.684 C 345.061 99.066,344.640 99.200,354.200 99.200 C 362.463 99.200,362.680 99.221,363.485 100.100 M12.493 198.400 C 12.493 199.170,12.575 199.485,12.676 199.100 C 12.776 198.715,12.776 198.085,12.676 197.700 C 12.575 197.315,12.493 197.630,12.493 198.400 M169.004 202.174 L 167.230 203.949 167.091 212.674 C 166.961 220.827,166.887 221.558,165.976 223.800 C 164.387 227.708,164.473 247.112,166.100 251.708 C 167.161 254.707,167.200 255.103,167.200 262.893 L 167.200 270.970 168.883 272.685 L 170.567 274.400 191.600 274.400 L 212.633 274.400 214.317 272.685 L 216.000 270.970 216.000 262.534 C 216.000 255.620,216.106 254.010,216.585 253.613 C 220.031 250.753,220.330 226.978,216.984 221.909 C 216.018 220.444,216.000 220.268,216.000 212.060 L 216.000 203.702 214.209 202.051 L 212.418 200.400 191.598 200.400 L 170.779 200.400 169.004 202.174 M214.296 226.264 L 215.800 228.528 215.922 237.034 C 216.054 246.235,215.711 247.932,213.278 250.131 C 211.976 251.307,193.253 250.945,189.837 249.677 C 187.685 248.878,186.734 248.800,179.146 248.800 L 170.816 248.800 170.008 247.216 C 168.883 245.011,168.780 230.107,169.874 227.814 L 170.548 226.400 178.825 226.400 C 185.529 226.400,187.395 226.278,188.644 225.756 C 191.873 224.407,194.906 224.064,203.896 224.032 L 212.792 224.000 214.296 226.264 " stroke="none" fill="#7c7c7c" fill-rule="evenodd"></path><path id="path4" d="M162.400 10.634 L 162.400 21.268 151.300 21.226 C 138.097 21.175,138.725 21.155,139.012 21.620 C 139.140 21.827,138.938 21.874,138.551 21.726 C 138.026 21.525,137.921 21.618,138.113 22.118 C 138.252 22.479,138.209 22.871,138.019 22.988 C 137.534 23.288,137.467 50.400,137.951 50.400 C 138.161 50.400,138.402 50.193,138.487 49.939 C 138.589 49.634,139.842 49.493,142.220 49.520 C 144.189 49.543,149.588 49.570,154.217 49.581 L 162.633 49.600 163.717 51.809 C 164.794 54.005,164.800 54.067,164.800 62.749 L 164.800 71.480 165.955 73.075 C 168.405 76.457,167.967 76.400,191.608 76.400 C 219.832 76.400,218.400 77.127,218.400 62.808 L 218.400 54.377 219.606 51.989 L 220.812 49.600 232.106 49.551 C 238.318 49.524,243.901 49.488,244.512 49.470 L 245.624 49.439 245.584 35.913 C 245.562 28.474,245.396 22.479,245.217 22.590 C 245.037 22.701,244.915 22.478,244.945 22.096 C 245.018 21.176,244.733 21.157,231.700 21.217 L 220.800 21.268 220.800 10.634 L 220.800 0.000 191.600 0.000 L 162.400 0.000 162.400 10.634 M217.495 23.116 C 218.870 23.895,219.000 25.024,219.000 36.200 L 219.000 46.600 217.662 49.200 C 216.927 50.630,215.892 52.373,215.362 53.073 C 214.418 54.323,214.400 54.501,214.400 62.626 C 214.400 70.316,214.341 71.002,213.567 72.253 L 212.735 73.600 191.803 73.600 L 170.871 73.600 169.836 72.369 L 168.800 71.139 168.800 62.562 L 168.800 53.985 166.775 49.951 L 164.751 45.916 164.875 35.767 L 165.000 25.617 166.109 24.508 L 167.217 23.400 180.631 23.144 C 188.009 23.003,194.170 22.762,194.323 22.609 C 194.841 22.087,216.516 22.562,217.495 23.116 M-0.000 112.391 L 0.000 178.800 6.151 178.800 L 12.301 178.800 12.549 189.900 C 12.686 196.005,12.799 201.415,12.801 201.922 C 12.804 202.429,12.982 202.735,13.198 202.601 C 13.430 202.458,13.483 202.640,13.326 203.049 C 13.123 203.578,13.218 203.679,13.731 203.482 C 14.099 203.341,14.400 203.386,14.400 203.583 C 14.400 203.984,38.593 204.168,40.143 203.778 L 41.125 203.532 41.179 191.270 C 41.223 181.374,41.344 178.840,41.806 178.135 C 43.081 176.188,43.786 151.328,42.578 150.926 C 41.027 150.410,40.400 153.688,40.400 162.323 L 40.400 170.738 39.080 172.469 L 37.760 174.200 28.848 174.308 L 19.935 174.415 18.568 173.048 L 17.200 171.680 17.200 163.248 C 17.200 155.148,17.158 154.695,16.130 151.708 C 15.094 148.701,15.046 148.158,14.643 135.000 C 13.758 106.067,14.037 100.119,16.438 96.747 C 17.130 95.775,17.200 94.896,17.200 87.191 L 17.200 78.706 18.753 77.153 L 20.306 75.600 29.053 75.614 C 41.594 75.634,41.194 75.254,41.197 87.151 L 41.200 95.302 42.500 97.941 L 43.800 100.580 43.926 113.090 C 44.048 125.211,44.158 126.256,45.182 125.021 C 45.568 124.556,47.370 124.419,54.363 124.321 C 62.912 124.202,63.091 124.182,64.591 123.186 L 66.117 122.173 66.032 113.430 C 65.932 103.231,66.468 100.598,69.298 97.383 L 70.823 95.651 70.781 84.630 C 70.757 78.568,70.580 73.511,70.387 73.392 C 70.193 73.272,70.129 72.928,70.245 72.628 C 70.773 71.250,69.938 71.163,56.748 71.227 C 50.319 71.257,46.001 71.126,45.858 70.894 C 45.728 70.683,45.606 65.443,45.588 59.250 L 45.554 47.991 44.578 47.014 L 43.602 46.038 21.801 46.010 L -0.000 45.982 -0.000 112.391 M314.400 46.396 C 314.400 46.604,314.099 46.659,313.731 46.518 C 313.218 46.321,313.123 46.422,313.326 46.951 C 313.483 47.360,313.430 47.542,313.198 47.399 C 312.713 47.099,312.777 44.670,312.542 72.471 C 312.347 95.488,312.358 95.950,313.128 96.362 C 314.039 96.849,315.561 99.387,316.552 102.070 C 317.146 103.677,317.226 105.197,317.121 112.890 L 317.000 121.840 318.054 122.713 C 319.894 124.235,321.022 124.400,329.583 124.400 C 336.620 124.400,337.950 124.493,338.145 125.000 C 338.914 127.005,339.152 124.587,339.294 113.300 C 339.456 100.507,339.758 98.162,341.429 96.776 C 341.891 96.392,342.000 94.669,342.000 87.742 L 342.000 79.182 343.651 77.391 L 345.302 75.600 354.032 75.600 C 366.640 75.600,366.000 74.973,366.000 87.331 C 366.000 94.363,366.105 95.989,366.585 96.387 C 369.107 98.481,369.506 106.606,368.557 136.600 C 368.161 149.125,368.129 149.457,367.076 152.031 C 366.027 154.596,366.000 154.873,366.000 162.951 C 366.000 174.963,366.580 174.400,354.216 174.400 L 345.669 174.400 344.435 172.721 L 343.200 171.042 343.200 162.785 L 343.200 154.528 342.022 152.374 C 341.124 150.732,340.782 150.381,340.584 150.898 C 339.975 152.485,340.587 176.546,341.269 177.803 C 341.821 178.823,341.942 180.877,342.060 191.273 L 342.200 203.539 343.400 203.781 C 345.201 204.144,368.800 203.988,368.800 203.614 C 368.800 203.435,369.115 203.314,369.500 203.344 C 369.940 203.379,370.216 203.103,370.243 202.600 C 370.266 202.160,370.412 201.508,370.566 201.150 C 370.721 200.793,370.804 199.893,370.752 199.150 C 370.699 198.408,370.689 193.510,370.728 188.266 L 370.800 178.732 381.700 178.783 C 394.733 178.843,395.018 178.824,394.945 177.904 C 394.915 177.522,395.048 177.306,395.241 177.425 C 395.440 177.549,395.591 155.020,395.591 125.000 C 395.591 94.980,395.440 72.451,395.241 72.575 C 395.048 72.694,394.915 72.478,394.945 72.096 C 395.018 71.176,394.733 71.157,381.700 71.217 L 370.800 71.268 370.728 61.734 C 370.689 56.490,370.699 51.592,370.752 50.850 C 370.804 50.107,370.721 49.207,370.566 48.850 C 370.412 48.492,370.266 47.840,370.243 47.400 C 370.216 46.897,369.940 46.621,369.500 46.656 C 369.115 46.686,368.800 46.555,368.800 46.364 C 368.800 46.172,356.689 46.017,341.600 46.017 C 324.732 46.017,314.400 46.161,314.400 46.396 M169.281 176.787 C 166.833 178.561,166.800 178.708,166.800 187.851 L 166.800 196.155 164.608 198.277 L 162.417 200.400 153.794 200.400 C 140.834 200.400,142.000 197.885,142.000 225.837 L 142.000 247.177 141.038 249.352 C 140.509 250.549,139.519 252.111,138.838 252.823 L 137.600 254.119 137.600 264.636 C 137.600 271.216,137.750 275.245,138.000 275.400 C 138.220 275.536,138.400 275.367,138.400 275.024 C 138.400 274.681,138.625 274.395,138.900 274.389 C 139.175 274.382,144.580 274.387,150.911 274.400 L 162.422 274.422 164.811 276.811 L 167.200 279.200 167.200 287.749 L 167.200 296.298 168.991 297.949 L 170.782 299.600 191.791 299.600 L 212.800 299.600 214.400 298.000 L 216.000 296.400 216.000 287.888 L 216.000 279.377 218.500 276.899 L 221.000 274.421 233.300 274.389 L 245.600 274.357 245.600 264.216 L 245.600 254.076 244.226 252.432 C 241.184 248.791,241.200 248.930,241.200 225.393 C 241.200 197.842,242.406 200.400,229.417 200.400 L 220.871 200.400 218.635 198.217 L 216.400 196.035 216.400 187.492 L 216.400 178.950 215.300 177.936 C 212.599 175.448,214.143 175.600,191.571 175.600 L 170.920 175.600 169.281 176.787 M214.209 202.051 L 216.000 203.702 216.000 212.060 C 216.000 220.268,216.018 220.444,216.984 221.909 C 220.330 226.978,220.031 250.753,216.585 253.613 C 216.106 254.010,216.000 255.620,216.000 262.534 L 216.000 270.970 214.317 272.685 L 212.633 274.400 191.600 274.400 L 170.567 274.400 168.883 272.685 L 167.200 270.970 167.200 262.893 C 167.200 255.103,167.161 254.707,166.100 251.708 C 164.473 247.112,164.387 227.708,165.976 223.800 C 166.887 221.558,166.961 220.827,167.091 212.674 L 167.230 203.949 169.004 202.174 L 170.779 200.400 191.598 200.400 L 212.418 200.400 214.209 202.051 " stroke="none" fill="#4c4c4c" fill-rule="evenodd"></path><path id="path5" d="M138.100 21.065 C 137.524 21.298,137.432 22.249,137.955 22.572 C 138.150 22.693,138.285 22.478,138.255 22.096 C 138.218 21.632,138.494 21.396,139.079 21.388 C 139.562 21.381,140.087 21.246,140.245 21.088 C 140.566 20.767,138.883 20.749,138.100 21.065 M149.100 21.099 C 151.575 21.169,155.625 21.169,158.100 21.099 C 160.575 21.028,158.550 20.971,153.600 20.971 C 148.650 20.971,146.625 21.028,149.100 21.099 M225.100 21.099 C 227.575 21.169,231.625 21.169,234.100 21.099 C 236.575 21.028,234.550 20.971,229.600 20.971 C 224.650 20.971,222.625 21.028,225.100 21.099 M243.200 21.136 C 243.200 21.350,243.578 21.426,244.041 21.305 C 244.528 21.178,245.046 21.320,245.271 21.643 C 245.595 22.106,245.634 22.099,245.500 21.600 C 245.322 20.940,243.200 20.511,243.200 21.136 M245.697 37.019 L 245.600 49.438 244.500 49.470 C 243.895 49.488,238.318 49.524,232.106 49.551 L 220.812 49.600 219.579 52.042 L 218.346 54.484 218.473 63.342 C 218.594 71.811,218.641 72.266,219.533 73.700 L 220.465 75.200 228.845 75.200 C 241.523 75.200,240.908 74.604,241.230 87.200 C 241.441 95.459,241.539 96.397,242.419 98.600 C 243.325 100.868,243.386 101.555,243.519 111.058 C 243.657 120.886,243.681 121.136,244.561 121.963 L 245.461 122.809 280.431 122.499 C 307.494 122.258,315.603 122.073,316.300 121.680 C 317.593 120.950,317.696 105.105,316.429 101.772 C 314.070 95.565,315.938 96.000,291.626 96.000 L 270.800 96.000 270.728 85.300 C 270.689 79.415,270.698 74.000,270.750 73.267 C 270.891 71.240,270.220 70.718,267.624 70.841 C 266.401 70.899,261.036 70.913,255.703 70.873 L 246.006 70.800 245.900 47.700 C 245.841 34.995,245.750 30.189,245.697 37.019 M369.854 46.270 C 370.103 46.451,370.407 46.960,370.528 47.400 C 370.701 48.031,370.732 47.995,370.674 47.231 C 370.633 46.699,370.330 46.190,370.000 46.101 C 369.604 45.994,369.554 46.051,369.854 46.270 M312.428 48.700 C 312.413 49.635,312.469 50.400,312.553 50.400 C 312.893 50.400,313.042 48.495,312.759 47.773 C 312.545 47.226,312.448 47.497,312.428 48.700 M138.345 50.047 C 137.655 50.646,137.600 51.439,137.600 60.747 L 137.600 70.800 127.900 70.881 C 122.565 70.925,117.092 70.910,115.738 70.848 C 112.353 70.692,112.477 70.153,112.712 84.052 L 112.915 96.000 91.689 96.000 L 70.462 96.000 69.111 97.579 C 66.589 100.525,65.987 103.435,66.000 112.600 C 66.014 121.680,65.947 121.439,68.615 121.958 C 72.162 122.647,137.705 122.904,138.625 122.232 C 139.345 121.706,139.416 120.953,139.623 111.533 C 139.830 102.134,139.915 101.226,140.788 99.000 C 141.650 96.803,141.749 95.807,141.965 87.199 C 142.278 74.680,141.451 75.492,154.188 75.201 L 162.976 75.000 163.881 73.400 C 165.397 70.722,165.277 54.990,163.717 51.809 L 162.633 49.600 154.217 49.585 C 149.588 49.577,144.290 49.532,142.445 49.485 C 139.839 49.419,138.924 49.544,138.345 50.047 M45.790 60.200 L 45.800 71.000 54.400 71.012 L 63.000 71.023 54.507 70.904 L 46.013 70.784 45.896 60.092 L 45.780 49.400 45.790 60.200 M68.121 71.053 C 68.298 71.231,68.838 71.381,69.321 71.388 C 69.976 71.397,70.192 71.633,70.167 72.313 C 70.143 72.957,70.259 73.101,70.558 72.802 C 71.222 72.138,70.300 71.021,68.960 70.865 C 68.322 70.790,67.945 70.875,68.121 71.053 M375.100 71.099 C 377.575 71.169,381.625 71.169,384.100 71.099 C 386.575 71.028,384.550 70.971,379.600 70.971 C 374.650 70.971,372.625 71.028,375.100 71.099 M393.200 71.136 C 393.200 71.350,393.578 71.426,394.041 71.305 C 394.528 71.178,395.046 71.320,395.271 71.643 C 395.595 72.106,395.634 72.099,395.500 71.600 C 395.322 70.940,393.200 70.511,393.200 71.136 M395.794 125.000 C 395.794 152.720,395.842 164.001,395.900 150.069 C 395.958 136.137,395.958 113.457,395.900 99.669 C 395.842 85.881,395.794 97.280,395.794 125.000 M144.470 128.126 C 143.634 129.016,143.600 129.377,143.600 137.471 L 143.600 145.891 144.655 146.945 L 145.709 148.000 154.246 148.000 C 162.716 148.000,162.799 147.992,164.991 146.917 L 167.200 145.833 167.200 137.523 L 167.200 129.213 165.213 128.207 C 162.229 126.694,145.874 126.631,144.470 128.126 M218.100 128.104 L 216.400 128.958 216.400 137.497 L 216.400 146.037 218.500 147.014 C 221.684 148.497,237.351 148.543,238.730 147.074 C 240.027 145.694,240.087 129.287,238.800 128.000 C 237.540 126.740,220.646 126.825,218.100 128.104 M43.920 176.200 C 41.171 178.217,41.239 177.842,41.179 191.321 C 41.130 202.343,41.059 203.573,40.462 203.732 C 40.098 203.828,56.241 203.928,76.337 203.954 L 112.873 204.000 112.737 228.362 C 112.661 241.761,112.718 252.651,112.863 252.561 C 113.007 252.472,113.035 252.746,112.924 253.169 C 112.728 253.917,113.089 253.941,125.206 253.983 L 137.689 254.025 138.883 252.777 C 139.539 252.090,140.509 250.549,141.038 249.352 L 142.000 247.177 142.000 225.902 C 142.000 207.277,142.081 204.416,142.646 202.934 C 143.195 201.499,143.214 201.041,142.777 199.921 C 142.424 199.019,142.207 195.492,142.093 188.811 L 141.925 179.022 139.797 176.911 L 137.670 174.800 91.735 174.810 L 45.800 174.820 43.920 176.200 M243.501 177.100 L 241.226 179.400 241.185 188.470 C 241.156 194.698,240.974 198.184,240.602 199.593 C 240.140 201.342,240.145 201.848,240.630 203.010 C 241.099 204.132,241.200 208.105,241.200 225.372 C 241.200 248.932,241.184 248.790,244.226 252.432 L 245.600 254.076 245.600 264.216 L 245.600 274.357 233.300 274.389 L 221.000 274.421 218.500 276.899 L 216.000 279.377 216.000 287.888 L 216.000 296.400 214.400 298.000 L 212.800 299.600 191.791 299.600 L 170.782 299.600 168.991 297.949 L 167.200 296.298 167.200 287.749 L 167.200 279.200 164.811 276.811 L 162.422 274.422 150.911 274.400 C 144.580 274.387,139.175 274.382,138.900 274.389 C 138.625 274.395,138.400 274.681,138.400 275.024 C 138.400 275.367,138.216 275.534,137.991 275.395 C 137.713 275.223,137.617 287.760,137.691 314.471 L 137.800 353.800 138.800 353.843 C 139.350 353.867,145.001 353.912,151.357 353.943 L 162.915 354.000 162.712 365.948 C 162.600 372.589,162.668 378.178,162.865 378.530 C 163.293 379.295,219.319 379.531,220.234 378.771 C 220.595 378.472,220.736 375.239,220.776 366.301 C 220.807 359.665,220.879 354.188,220.936 354.131 C 220.994 354.073,226.558 354.006,233.302 353.983 L 245.563 353.940 245.624 352.870 C 245.658 352.281,245.759 329.795,245.849 302.900 L 246.012 254.000 257.106 253.933 C 263.208 253.896,268.740 253.851,269.400 253.833 C 270.545 253.802,270.602 253.717,270.640 252.000 C 270.661 251.010,270.706 239.805,270.740 227.100 L 270.800 204.000 307.300 203.946 C 327.375 203.916,343.440 203.819,343.000 203.730 C 342.225 203.575,342.196 203.193,342.060 191.285 C 341.906 177.748,341.940 177.934,339.303 176.027 L 337.607 174.800 291.691 174.800 L 245.775 174.800 243.501 177.100 M395.200 178.380 C 395.200 178.712,394.846 178.826,394.200 178.702 C 393.650 178.597,393.200 178.666,393.200 178.855 C 393.200 179.351,395.103 179.281,395.416 178.773 C 395.561 178.539,395.572 178.239,395.440 178.107 C 395.308 177.975,395.200 178.098,395.200 178.380 M3.119 179.098 C 4.944 179.172,7.824 179.172,9.519 179.097 C 11.214 179.022,9.720 178.961,6.200 178.962 C 2.680 178.962,1.294 179.024,3.119 179.098 M375.100 179.099 C 377.575 179.169,381.625 179.169,384.100 179.099 C 386.575 179.028,384.550 178.971,379.600 178.971 C 374.650 178.971,372.625 179.028,375.100 179.099 M12.428 201.300 C 12.448 202.503,12.545 202.774,12.759 202.227 C 13.042 201.505,12.893 199.600,12.553 199.600 C 12.469 199.600,12.413 200.365,12.428 201.300 M370.432 202.667 C 370.414 203.143,370.175 203.624,369.900 203.735 C 369.508 203.893,369.511 203.944,369.913 203.968 C 370.520 204.006,370.961 203.040,370.669 202.313 C 370.556 202.031,370.449 202.190,370.432 202.667 M213.199 325.800 C 216.172 327.337,216.400 328.160,216.400 337.351 C 216.400 350.870,218.921 349.658,191.094 349.513 L 169.399 349.400 168.400 348.401 L 167.400 347.402 167.280 337.970 L 167.160 328.538 168.971 326.869 L 170.782 325.200 191.411 325.200 C 208.959 325.200,212.213 325.290,213.199 325.800 " stroke="none" fill="#341414" fill-rule="evenodd"></path></g></svg>