<svg id="svg" version="1.1" xmlns="http://www.w3.org/2000/svg" xmlns:xlink="http://www.w3.org/1999/xlink" width="400" height="374.745417515275" viewBox="0, 0, 400,374.745417515275"><g id="svgg"><path id="path0" d="M199.185 24.474 C 198.190 24.636,196.552 25.037,195.545 25.365 C 194.113 25.831,191.868 25.971,185.236 26.007 C 173.218 26.074,172.119 26.714,173.314 32.948 C 173.777 35.361,173.949 38.336,173.960 44.081 L 173.974 51.921 175.563 53.723 C 177.434 55.846,176.874 55.766,186.879 55.348 L 194.002 55.051 195.655 56.748 C 197.799 58.948,198.126 60.939,197.358 67.097 C 196.206 76.331,196.095 76.239,208.611 76.384 C 220.453 76.522,221.336 75.967,220.221 69.098 C 219.024 61.727,219.591 58.182,222.365 55.688 C 224.701 53.587,225.517 53.464,233.410 54.018 L 239.938 54.476 240.858 53.612 C 242.341 52.219,242.480 51.000,242.499 39.257 L 242.517 28.092 241.498 26.952 L 240.479 25.811 233.079 25.850 C 226.905 25.882,225.135 25.764,222.399 25.135 C 218.835 24.316,202.940 23.864,199.185 24.474 M29.616 103.916 C 27.556 105.004,27.293 106.419,27.775 113.833 L 28.209 120.525 27.225 123.883 C 25.760 128.886,25.725 144.894,27.168 150.139 C 28.058 153.372,28.085 153.808,27.861 161.018 C 27.523 171.875,28.141 173.115,33.666 172.667 C 37.901 172.325,37.813 172.325,40.888 172.634 C 44.072 172.954,44.557 172.796,46.921 170.660 C 49.521 168.311,49.994 166.927,49.490 163.139 C 48.496 155.675,48.526 154.696,49.828 152.077 C 51.923 147.866,53.100 147.631,63.272 149.394 C 67.506 150.128,67.709 150.068,69.353 147.606 L 70.665 145.642 70.665 137.071 L 70.665 128.499 69.197 127.230 C 67.464 125.732,67.090 125.705,59.419 126.519 C 54.311 127.062,54.143 127.057,53.155 126.331 C 52.596 125.921,51.986 125.586,51.800 125.586 C 48.646 125.586,46.753 118.543,48.172 112.090 C 49.564 105.761,48.307 103.843,42.769 103.843 C 40.960 103.843,37.472 103.748,35.017 103.631 C 31.699 103.475,30.312 103.548,29.616 103.916 M359.388 103.829 L 348.578 104.030 347.431 105.314 L 346.284 106.599 346.607 112.062 C 347.222 122.493,346.901 123.615,342.729 125.635 C 340.738 126.599,340.426 126.616,333.005 126.174 C 324.298 125.656,324.274 125.687,324.274 137.319 C 324.274 144.196,324.363 145.441,324.930 146.471 C 325.799 148.052,327.602 150.025,327.969 149.799 C 328.130 149.699,329.094 149.506,330.110 149.370 C 331.127 149.234,332.086 149.046,332.241 148.953 C 332.566 148.757,337.236 148.345,339.456 148.316 C 344.533 148.249,346.556 152.571,345.461 161.148 C 344.672 167.328,344.641 167.213,348.071 170.539 C 350.684 173.073,350.989 173.262,352.112 173.042 C 354.776 172.521,365.204 172.351,367.872 172.786 C 371.204 173.330,372.247 173.043,373.727 171.176 L 374.883 169.719 374.883 161.188 C 374.883 153.374,374.953 152.440,375.721 150.086 C 377.032 146.063,377.002 128.720,375.675 124.274 C 374.821 121.410,374.790 120.934,375.000 113.739 C 375.190 107.239,375.138 106.088,374.627 105.359 C 373.970 104.421,371.899 103.424,370.865 103.548 C 370.497 103.591,365.333 103.718,359.388 103.829 M176.279 253.037 C 174.537 254.114,174.448 254.650,174.684 262.695 C 174.966 272.318,174.071 271.516,184.709 271.674 C 190.022 271.753,193.436 271.646,194.475 271.368 C 197.594 270.533,199.390 267.487,198.163 265.114 C 197.658 264.138,197.626 263.401,197.948 260.101 C 198.679 252.598,198.560 252.517,186.571 252.381 C 178.026 252.284,177.437 252.322,176.279 253.037 " stroke="none" fill="#3eb3ee" fill-rule="evenodd"></path><path id="path1" d="M159.663 102.680 C 150.555 102.991,151.037 102.267,151.152 115.479 C 151.206 121.665,151.095 124.895,150.813 125.405 C 150.357 126.230,144.734 126.285,117.813 125.728 C 103.379 125.429,103.703 125.144,103.908 137.991 C 104.100 150.053,104.626 150.613,115.160 149.985 C 126.271 149.322,126.452 149.512,126.109 161.465 C 125.908 168.464,125.955 169.432,126.569 170.947 C 127.162 172.410,127.259 173.885,127.305 182.077 L 127.358 191.520 128.650 193.323 C 130.360 195.709,132.063 196.181,137.171 195.683 C 144.699 194.951,149.713 195.358,150.084 196.731 C 150.692 198.982,150.782 200.393,150.748 207.243 C 150.693 218.599,150.442 218.369,162.887 218.369 L 171.134 218.369 172.908 217.327 C 175.500 215.803,175.413 216.525,175.083 199.345 C 175.069 198.611,172.744 195.891,171.541 195.201 C 171.023 194.903,167.765 194.689,161.869 194.564 C 154.030 194.399,152.900 194.299,152.317 193.716 C 151.322 192.719,151.198 127.248,152.191 126.717 C 152.535 126.533,156.432 126.385,160.850 126.390 C 165.269 126.394,169.427 126.383,170.090 126.366 C 173.728 126.273,174.961 123.217,175.203 113.698 L 175.385 106.496 174.122 104.842 C 172.287 102.439,171.249 102.283,159.663 102.680 M222.425 103.424 C 219.978 105.197,219.753 106.080,219.845 113.590 C 219.942 121.566,220.522 123.979,222.722 125.573 L 224.089 126.563 232.862 126.500 C 241.786 126.437,243.097 126.309,243.274 125.487 C 243.329 125.232,243.451 120.607,243.547 115.208 C 243.789 101.453,244.569 102.343,232.272 102.343 L 223.918 102.343 222.425 103.424 M275.791 125.834 C 275.655 125.970,269.174 126.109,261.389 126.142 C 247.419 126.203,244.501 126.383,243.961 127.221 C 243.809 127.455,243.662 130.431,243.634 133.833 C 243.606 137.235,243.523 141.621,243.450 143.580 C 243.196 150.337,243.236 179.397,243.506 185.233 C 243.968 195.218,244.255 194.962,232.726 194.842 C 223.529 194.746,222.752 194.939,221.022 197.751 L 219.869 199.625 219.765 207.123 C 219.605 218.570,219.382 218.369,232.286 218.369 L 241.364 218.369 242.380 217.432 C 244.287 215.673,244.424 214.837,244.424 204.929 L 244.424 195.776 246.948 195.506 C 248.336 195.357,254.473 195.358,260.586 195.509 L 271.700 195.782 272.794 194.704 C 275.688 191.855,275.563 192.410,275.521 182.598 C 275.489 175.047,275.594 173.247,276.239 170.253 C 276.897 167.204,276.966 165.907,276.773 160.287 C 276.507 152.528,276.586 152.122,278.627 150.834 L 280.201 149.840 287.189 150.083 C 298.603 150.480,298.912 150.106,298.710 136.143 L 298.594 128.151 297.194 126.868 L 295.794 125.586 285.916 125.586 C 280.484 125.586,275.927 125.697,275.791 125.834 M207.685 150.301 C 197.331 150.640,197.683 150.100,197.451 165.990 C 197.397 169.700,199.576 170.526,209.604 170.595 C 220.383 170.669,220.223 170.771,220.276 163.824 C 220.294 161.453,220.435 158.079,220.590 156.326 L 220.870 153.140 219.099 151.734 C 218.126 150.961,216.972 150.326,216.537 150.323 C 216.101 150.320,215.408 150.266,214.995 150.202 C 214.583 150.138,211.293 150.182,207.685 150.301 " stroke="none" fill="#c00fd5" fill-rule="evenodd"></path><path id="path2" d="M123.422 40.019 C 123.530 82.442,123.462 81.079,125.518 81.938 C 127.049 82.577,140.776 82.694,141.161 82.071 C 141.453 81.599,146.204 81.626,146.204 82.099 C 146.204 82.306,146.443 82.474,146.736 82.474 C 147.168 82.474,147.230 83.055,147.070 85.567 C 146.749 90.613,146.758 92.366,147.109 93.158 C 147.499 94.041,147.625 96.719,147.275 96.720 C 147.143 96.720,146.934 96.982,146.811 97.302 C 146.688 97.622,146.722 97.800,146.887 97.699 C 147.051 97.597,147.374 98.221,147.605 99.085 L 148.025 100.656 160.290 100.568 C 171.246 100.490,172.859 100.556,175.406 101.189 C 179.195 102.130,217.680 101.990,221.051 101.023 C 222.579 100.585,225.539 100.469,235.203 100.469 C 247.049 100.469,247.423 100.446,247.423 99.741 C 247.423 99.341,247.577 98.918,247.765 98.802 C 248.135 98.573,247.941 96.772,247.392 95.327 C 247.186 94.786,247.186 94.512,247.392 94.639 C 247.857 94.926,248.321 89.621,247.968 88.049 C 247.525 86.078,247.772 83.124,248.441 82.385 C 249.098 81.659,253.186 81.417,253.596 82.080 C 253.902 82.575,275.904 82.602,277.201 82.109 C 277.755 81.898,278.101 81.553,277.970 81.341 C 277.840 81.129,277.943 81.002,278.200 81.059 C 279.526 81.351,279.604 79.053,279.634 39.082 L 279.663 0.000 201.491 -0.000 L 123.320 -0.000 123.422 40.019 M206.560 23.362 C 213.055 23.396,223.442 23.340,229.643 23.239 L 240.917 23.055 242.472 24.085 C 245.061 25.798,245.048 25.724,245.100 39.550 C 245.137 49.432,245.029 52.487,244.563 54.733 C 244.141 56.761,243.963 60.051,243.920 66.542 C 243.839 79.013,244.662 78.246,231.115 78.485 C 226.246 78.571,221.923 78.819,221.183 79.056 C 218.822 79.812,178.084 79.614,175.070 78.832 C 173.111 78.323,170.797 78.196,163.261 78.181 C 150.001 78.156,150.974 79.086,150.889 66.354 C 150.856 61.509,150.637 55.942,150.402 53.983 C 149.663 47.838,149.853 28.282,150.672 26.242 C 151.819 23.383,151.332 23.459,170.197 23.213 C 179.372 23.093,188.650 23.064,190.815 23.148 C 192.980 23.232,200.066 23.328,206.560 23.362 M0.847 74.866 L 0.006 75.028 0.002 164.395 L -0.003 253.761 1.404 254.060 C 2.178 254.224,18.669 254.358,38.051 254.358 C 76.763 254.358,74.906 254.468,76.098 252.105 C 76.832 250.651,77.176 230.548,76.489 229.264 C 75.574 227.555,76.157 223.377,77.413 222.643 C 78.667 221.910,80.065 221.744,80.401 222.287 C 80.532 222.500,85.470 222.654,92.624 222.670 L 104.627 222.696 104.180 221.861 C 103.318 220.250,103.368 204.974,104.279 191.378 C 104.307 190.965,104.290 190.037,104.242 189.316 C 104.194 188.594,104.277 185.558,104.427 182.568 C 104.649 178.143,104.582 176.552,104.067 174.012 C 103.583 171.628,103.436 168.931,103.444 162.570 C 103.452 156.435,103.290 153.315,102.830 150.695 C 101.230 141.599,101.851 125.701,103.877 123.868 C 104.418 123.378,104.472 123.073,104.160 122.269 C 103.690 121.055,104.132 100.868,104.643 100.233 C 104.849 99.977,104.830 99.408,104.596 98.791 L 104.209 97.773 92.342 97.902 C 83.928 97.994,80.433 98.156,80.333 98.457 C 80.236 98.749,79.757 98.785,78.813 98.572 C 78.055 98.401,77.362 98.333,77.273 98.422 C 77.185 98.510,76.890 98.290,76.619 97.932 C 76.014 97.136,75.927 92.170,76.508 91.590 C 76.779 91.319,76.872 89.012,76.789 84.673 C 76.649 77.422,76.127 75.436,74.227 74.935 C 72.303 74.427,4.205 74.554,3.999 75.065 C 3.848 75.439,3.802 75.440,3.778 75.070 C 3.749 74.612,2.583 74.531,0.847 74.866 M321.275 74.919 C 321.275 75.087,320.901 75.210,320.444 75.194 C 318.821 75.136,318.472 76.722,318.371 84.609 C 318.313 89.084,318.420 91.891,318.652 92.035 C 318.857 92.162,319.025 93.531,319.025 95.077 C 319.025 96.681,318.878 97.798,318.682 97.677 C 318.494 97.560,318.275 97.658,318.196 97.894 C 318.033 98.384,317.360 98.392,306.617 98.020 L 298.894 97.752 298.698 98.829 C 298.590 99.422,298.538 104.461,298.582 110.028 C 298.627 115.595,298.526 120.637,298.359 121.233 C 298.124 122.067,298.234 122.567,298.838 123.415 C 300.624 125.923,301.709 140.017,300.614 146.485 C 300.431 147.568,300.113 149.424,299.908 150.609 C 299.702 151.795,299.432 157.235,299.307 162.699 C 299.146 169.766,298.926 173.108,298.544 174.276 C 298.141 175.509,298.017 177.895,298.046 183.836 C 298.067 188.190,298.059 192.006,298.028 192.315 C 297.997 192.624,298.254 194.296,298.599 196.030 C 299.126 198.674,299.206 201.076,299.098 210.931 L 298.969 222.680 306.726 222.680 C 311.492 222.680,314.572 222.536,314.714 222.306 C 314.842 222.099,315.358 221.931,315.861 221.931 C 316.364 221.931,316.776 222.099,316.776 222.306 C 316.776 222.512,317.041 222.680,317.365 222.680 C 318.695 222.680,319.101 223.687,318.841 226.341 C 317.695 238.016,318.392 253.888,320.022 253.262 C 320.320 253.148,320.473 253.202,320.362 253.382 C 319.722 254.416,324.328 254.545,361.741 254.545 L 400.000 254.545 400.000 164.571 L 400.000 74.596 360.637 74.605 C 338.988 74.610,321.275 74.752,321.275 74.919 M373.196 101.260 C 375.816 101.747,377.168 103.163,377.514 105.783 C 377.734 107.440,377.658 156.116,377.391 184.817 C 377.277 197.083,378.228 196.434,360.371 196.437 C 346.377 196.439,347.530 196.668,345.566 193.499 C 344.822 192.300,344.799 191.909,345.031 184.315 C 345.380 172.829,345.494 172.953,334.781 173.127 C 322.124 173.332,321.954 173.148,322.019 159.325 C 322.038 155.305,321.911 147.291,321.737 141.518 C 321.429 131.282,321.646 125.010,322.406 122.187 C 322.614 121.415,322.751 117.132,322.714 112.599 C 322.621 101.331,321.615 102.297,333.646 102.103 C 338.491 102.025,344.142 101.728,346.204 101.443 C 350.556 100.841,370.226 100.708,373.196 101.260 M49.733 101.804 C 52.798 102.415,60.187 102.550,66.561 102.110 C 69.818 101.886,69.999 101.915,71.060 102.829 L 72.165 103.782 72.184 112.903 C 72.196 118.780,72.369 122.758,72.671 124.086 C 73.293 126.827,73.359 166.353,72.744 168.634 C 71.644 172.721,69.892 173.391,61.203 173.052 C 54.056 172.773,52.239 173.032,50.730 174.541 L 49.811 175.459 49.929 183.606 C 50.115 196.481,50.221 196.366,38.017 196.458 C 24.100 196.562,25.134 198.846,25.113 167.948 C 25.105 156.298,25.233 145.923,25.397 144.892 C 25.561 143.861,25.579 139.391,25.438 134.958 C 24.400 102.552,24.350 103.087,28.554 101.775 C 30.999 101.012,45.863 101.033,49.733 101.804 M175.445 219.742 C 174.250 220.238,155.518 220.737,152.045 220.365 C 148.953 220.035,148.974 220.024,149.766 221.557 C 150.259 222.511,150.416 224.237,150.543 230.120 C 150.631 234.173,150.787 239.371,150.890 241.672 L 151.077 245.856 149.596 247.730 C 147.147 250.828,147.798 250.684,136.934 250.537 C 131.621 250.465,126.640 250.350,125.867 250.282 C 125.032 250.209,124.449 250.327,124.431 250.572 C 124.414 250.799,124.168 250.478,123.885 249.859 C 123.275 248.526,123.083 350.284,123.691 352.904 C 124.108 354.701,124.501 355.108,126.051 355.345 C 128.255 355.682,164.282 355.786,164.714 355.456 C 165.332 354.985,168.956 354.897,169.234 355.347 C 169.545 355.851,170.630 355.430,171.254 354.563 C 171.526 354.185,172.622 353.424,173.691 352.872 L 175.633 351.868 195.818 351.715 C 216.896 351.556,217.175 351.572,221.416 353.201 C 223.337 353.939,225.091 355.457,224.618 355.973 C 224.480 356.123,224.828 355.952,225.391 355.592 C 226.192 355.080,226.804 354.997,228.203 355.210 C 230.496 355.559,274.406 355.857,275.159 355.528 C 275.471 355.393,276.156 355.315,276.681 355.355 C 277.914 355.451,278.701 354.515,279.235 352.318 C 279.800 349.993,279.852 248.761,279.288 249.110 C 279.082 249.237,278.913 249.753,278.913 250.256 C 278.913 250.760,278.842 251.172,278.756 251.172 C 278.669 251.172,277.615 250.920,276.413 250.612 C 274.662 250.165,273.337 250.120,269.758 250.388 C 266.973 250.596,264.360 250.585,262.823 250.358 C 260.364 249.995,255.415 250.198,251.597 250.819 C 248.930 251.253,246.116 249.548,244.526 246.533 C 243.962 245.466,244.350 223.268,244.966 221.348 L 245.453 219.828 242.783 220.154 C 238.905 220.627,220.502 220.317,219.188 219.757 C 217.807 219.167,176.865 219.154,175.445 219.742 M221.763 250.055 C 224.042 250.257,229.020 250.422,232.825 250.422 C 240.017 250.422,241.893 250.684,242.792 251.813 C 244.125 253.490,244.162 254.120,244.075 274.039 C 243.966 299.377,244.906 297.332,233.301 297.474 C 220.813 297.626,220.334 297.187,220.818 286.042 C 221.165 278.049,221.050 277.306,219.231 275.749 L 217.756 274.486 198.007 274.666 C 187.144 274.764,177.651 275.000,176.911 275.190 C 174.400 275.834,173.443 278.111,173.969 282.190 C 174.888 289.312,174.297 294.670,172.406 296.381 C 170.834 297.804,155.414 297.682,152.701 296.225 C 151.101 295.366,151.001 294.111,150.889 273.637 L 150.782 254.190 151.773 252.906 C 153.518 250.647,153.481 250.654,162.723 250.747 C 168.972 250.809,171.470 250.705,172.283 250.347 C 174.301 249.460,212.501 249.234,221.763 250.055 " stroke="none" fill="#070474" fill-rule="evenodd"></path><path id="path3" d="M123.142 37.488 C 123.142 58.210,123.187 66.687,123.243 56.326 C 123.298 45.965,123.298 29.011,123.243 18.650 C 123.187 8.290,123.142 16.767,123.142 37.488 M170.197 23.213 C 151.332 23.459,151.819 23.383,150.672 26.242 C 149.853 28.282,149.663 47.838,150.402 53.983 C 150.637 55.942,150.856 61.509,150.889 66.354 C 150.974 79.086,150.001 78.156,163.261 78.181 C 170.797 78.196,173.111 78.323,175.070 78.832 C 178.084 79.614,218.822 79.812,221.183 79.056 C 221.923 78.819,226.246 78.571,231.115 78.485 C 244.662 78.246,243.839 79.013,243.920 66.542 C 243.963 60.051,244.141 56.761,244.563 54.733 C 245.029 52.487,245.137 49.432,245.100 39.550 C 245.048 25.724,245.061 25.798,242.472 24.085 L 240.917 23.055 229.643 23.239 C 217.373 23.439,197.084 23.392,190.815 23.148 C 188.650 23.064,179.372 23.093,170.197 23.213 M222.399 25.135 C 225.135 25.764,226.905 25.882,233.079 25.850 L 240.479 25.811 241.498 26.952 L 242.517 28.092 242.499 39.257 C 242.480 51.000,242.341 52.219,240.858 53.612 L 239.938 54.476 233.410 54.018 C 225.517 53.464,224.701 53.587,222.365 55.688 C 219.591 58.182,219.024 61.727,220.221 69.098 C 221.336 75.967,220.453 76.522,208.611 76.384 C 196.095 76.239,196.206 76.331,197.358 67.097 C 198.126 60.939,197.799 58.948,195.655 56.748 L 194.002 55.051 186.879 55.348 C 176.874 55.766,177.434 55.846,175.563 53.723 L 173.974 51.921 173.960 44.081 C 173.949 38.336,173.777 35.361,173.314 32.948 C 172.119 26.714,173.218 26.074,185.236 26.007 C 191.868 25.971,194.113 25.831,195.545 25.365 C 200.083 23.887,216.364 23.748,222.399 25.135 M88.941 97.750 C 91.776 97.813,96.415 97.813,99.250 97.750 C 102.085 97.686,99.766 97.634,94.096 97.634 C 88.425 97.634,86.106 97.686,88.941 97.750 M302.624 97.748 C 304.222 97.818,306.837 97.818,308.435 97.748 C 310.033 97.678,308.725 97.620,305.530 97.620 C 302.334 97.620,301.026 97.678,302.624 97.748 M78.444 98.478 C 78.805 98.572,79.396 98.572,79.756 98.478 C 80.117 98.383,79.822 98.306,79.100 98.306 C 78.379 98.306,78.083 98.383,78.444 98.478 M314.995 98.478 C 315.356 98.572,315.947 98.572,316.307 98.478 C 316.668 98.383,316.373 98.306,315.651 98.306 C 314.930 98.306,314.634 98.383,314.995 98.478 M346.204 101.443 C 344.142 101.728,338.491 102.025,333.646 102.103 C 321.615 102.297,322.621 101.331,322.714 112.599 C 322.751 117.132,322.614 121.415,322.406 122.187 C 321.646 125.010,321.429 131.282,321.737 141.518 C 321.911 147.291,322.038 155.305,322.019 159.325 C 321.954 173.148,322.124 173.332,334.781 173.127 C 345.494 172.953,345.380 172.829,345.031 184.315 C 344.799 191.909,344.822 192.300,345.566 193.499 C 347.530 196.668,346.377 196.439,360.371 196.437 C 378.228 196.434,377.277 197.083,377.391 184.817 C 377.658 156.116,377.734 107.440,377.514 105.783 C 377.168 103.163,375.816 101.747,373.196 101.260 C 370.226 100.708,350.556 100.841,346.204 101.443 M28.554 101.775 C 24.350 103.087,24.400 102.552,25.438 134.958 C 25.579 139.391,25.561 143.861,25.397 144.892 C 25.233 145.923,25.105 156.298,25.113 167.948 C 25.134 198.846,24.100 196.562,38.017 196.458 C 50.221 196.366,50.115 196.481,49.929 183.606 L 49.811 175.459 50.730 174.541 C 52.239 173.032,54.056 172.773,61.203 173.052 C 69.892 173.391,71.644 172.721,72.744 168.634 C 73.359 166.353,73.293 126.827,72.671 124.086 C 72.369 122.758,72.196 118.780,72.184 112.903 L 72.165 103.782 71.060 102.829 C 69.999 101.915,69.818 101.886,66.561 102.110 C 60.187 102.550,52.798 102.415,49.733 101.804 C 45.863 101.033,30.999 101.012,28.554 101.775 M42.769 103.843 C 48.307 103.843,49.564 105.761,48.172 112.090 C 46.753 118.543,48.646 125.586,51.800 125.586 C 51.986 125.586,52.596 125.921,53.155 126.331 C 54.143 127.057,54.311 127.062,59.419 126.519 C 67.090 125.705,67.464 125.732,69.197 127.230 L 70.665 128.499 70.665 137.071 L 70.665 145.642 69.353 147.606 C 67.709 150.068,67.506 150.128,63.272 149.394 C 53.100 147.631,51.923 147.866,49.828 152.077 C 48.526 154.696,48.496 155.675,49.490 163.139 C 49.994 166.927,49.521 168.311,46.921 170.660 C 44.557 172.796,44.072 172.954,40.888 172.634 C 37.813 172.325,37.901 172.325,33.666 172.667 C 28.141 173.115,27.523 171.875,27.861 161.018 C 28.085 153.808,28.058 153.372,27.168 150.139 C 25.725 144.894,25.760 128.886,27.225 123.883 L 28.209 120.525 27.775 113.833 C 27.129 103.887,27.561 103.279,35.017 103.631 C 37.472 103.748,40.960 103.843,42.769 103.843 M372.784 103.990 C 375.166 104.986,375.245 105.334,375.000 113.739 C 374.790 120.934,374.821 121.410,375.675 124.274 C 377.002 128.720,377.032 146.063,375.721 150.086 C 374.953 152.440,374.883 153.374,374.883 161.188 L 374.883 169.719 373.727 171.176 C 372.247 173.043,371.204 173.330,367.872 172.786 C 365.204 172.351,354.776 172.521,352.112 173.042 C 350.989 173.262,350.684 173.073,348.071 170.539 C 344.641 167.213,344.672 167.328,345.461 161.148 C 346.556 152.571,344.533 148.249,339.456 148.316 C 337.236 148.345,332.566 148.757,332.241 148.953 C 332.086 149.046,331.127 149.234,330.110 149.370 C 329.094 149.506,328.130 149.699,327.969 149.799 C 327.602 150.025,325.799 148.052,324.930 146.471 C 324.363 145.441,324.274 144.196,324.274 137.319 C 324.274 125.687,324.298 125.656,333.005 126.174 C 340.426 126.616,340.738 126.599,342.729 125.635 C 346.901 123.615,347.222 122.493,346.607 112.062 L 346.284 106.599 347.431 105.314 L 348.578 104.030 359.388 103.829 C 365.333 103.718,370.497 103.591,370.865 103.548 C 371.232 103.504,372.096 103.703,372.784 103.990 M123.144 298.219 C 123.144 326.054,123.188 337.497,123.243 323.647 C 123.297 309.797,123.297 287.023,123.243 273.038 C 123.188 259.053,123.144 270.384,123.144 298.219 M184.255 249.674 C 176.560 249.808,173.062 250.005,172.283 250.347 C 171.470 250.705,168.972 250.809,162.723 250.747 C 153.481 250.654,153.518 250.647,151.773 252.906 L 150.782 254.190 150.889 273.637 C 151.001 294.111,151.101 295.366,152.701 296.225 C 155.414 297.682,170.834 297.804,172.406 296.381 C 174.297 294.670,174.888 289.312,173.969 282.190 C 173.443 278.111,174.400 275.834,176.911 275.190 C 177.651 275.000,187.144 274.764,198.007 274.666 L 217.756 274.486 219.231 275.749 C 221.050 277.306,221.165 278.049,220.818 286.042 C 220.334 297.187,220.813 297.626,233.301 297.474 C 244.906 297.332,243.966 299.377,244.075 274.039 C 244.186 248.434,245.133 250.422,232.825 250.422 C 229.020 250.422,224.042 250.257,221.763 250.055 C 216.657 249.602,198.781 249.421,184.255 249.674 M196.673 253.259 C 198.133 254.350,198.379 255.673,197.948 260.101 C 197.626 263.401,197.658 264.138,198.163 265.114 C 199.390 267.487,197.594 270.533,194.475 271.368 C 191.331 272.209,176.700 271.712,175.718 270.730 C 174.841 269.853,174.059 256.690,174.762 254.639 C 175.615 252.153,193.671 251.015,196.673 253.259 " stroke="none" fill="#2d49e8" fill-rule="evenodd"></path><path id="path4" d="M104.355 98.139 C 104.455 98.300,112.462 98.427,122.148 98.420 C 131.834 98.413,139.681 98.533,139.586 98.688 C 139.490 98.843,139.591 98.969,139.809 98.969 C 140.028 98.969,140.206 98.716,140.206 98.407 C 140.206 97.915,137.954 97.844,122.190 97.844 C 112.281 97.844,104.255 97.977,104.355 98.139 M254.920 98.376 C 254.920 99.010,255.599 99.289,256.545 99.043 C 257.076 98.906,257.119 98.795,256.735 98.557 C 256.461 98.388,265.809 98.284,277.509 98.328 C 289.209 98.371,298.782 98.280,298.782 98.126 C 298.782 97.971,288.913 97.844,276.851 97.844 C 258.180 97.844,254.920 97.923,254.920 98.376 M143.330 98.809 C 143.330 99.224,143.562 99.337,144.111 99.189 C 144.541 99.074,145.029 98.977,145.196 98.974 C 145.362 98.971,145.395 98.800,145.267 98.594 C 144.886 97.978,143.330 98.150,143.330 98.809 M249.859 98.594 C 249.987 98.800,250.409 98.969,250.797 98.969 C 251.185 98.969,251.606 98.800,251.734 98.594 C 251.869 98.375,251.480 98.219,250.797 98.219 C 250.113 98.219,249.724 98.375,249.859 98.594 M147.980 101.148 C 147.334 101.925,147.133 112.563,147.692 116.404 C 148.624 122.802,149.499 122.547,128.207 122.098 C 104.391 121.596,104.049 121.656,102.574 126.599 C 101.702 129.519,101.869 145.231,102.830 150.695 C 103.290 153.315,103.452 156.435,103.444 162.570 C 103.436 168.931,103.583 171.628,104.067 174.012 C 104.582 176.553,104.649 178.140,104.426 182.568 C 104.009 190.839,104.151 191.767,106.113 193.647 C 107.097 194.590,107.339 194.668,107.997 194.257 C 108.483 193.954,110.120 193.792,112.577 193.806 C 114.680 193.817,117.649 193.598,119.173 193.319 L 121.945 192.812 125.493 196.395 C 129.560 200.502,129.767 200.884,129.281 203.399 C 129.085 204.416,128.890 207.895,128.848 211.129 C 128.763 217.711,128.859 217.998,131.126 217.944 C 134.953 217.851,142.782 217.043,143.827 216.634 C 144.973 216.184,145.077 216.230,147.088 218.067 C 148.471 219.332,149.640 220.058,150.590 220.244 C 152.674 220.651,169.940 220.445,173.008 219.977 C 177.212 219.335,216.752 219.143,219.306 219.752 C 220.778 220.103,224.706 220.244,233.018 220.244 L 244.667 220.244 246.138 219.221 C 246.948 218.658,248.160 217.750,248.832 217.202 L 250.054 216.206 253.213 216.834 C 256.494 217.485,270.977 218.371,272.168 217.993 C 274.145 217.366,275.373 206.878,273.821 203.877 C 272.552 201.422,273.017 200.241,276.387 197.366 C 278.156 195.857,279.525 194.387,279.591 193.925 C 279.805 192.444,280.531 192.225,282.570 193.029 C 285.474 194.173,294.857 194.557,296.481 193.598 C 298.160 192.606,298.224 192.218,298.105 183.663 C 298.022 177.717,298.121 175.568,298.539 174.291 C 298.927 173.104,299.145 169.813,299.307 162.699 C 299.432 157.235,299.702 151.795,299.908 150.609 C 300.113 149.424,300.431 147.568,300.614 146.485 C 301.775 139.625,300.583 125.562,298.636 123.149 L 297.729 122.024 287.477 122.024 C 281.839 122.024,270.940 122.103,263.257 122.199 L 249.288 122.373 248.261 121.347 C 247.361 120.447,247.243 120.058,247.299 118.174 C 247.333 116.993,247.418 112.568,247.486 108.341 L 247.610 100.656 235.426 100.548 C 225.479 100.461,222.864 100.545,221.181 101.006 C 217.631 101.980,179.225 102.137,175.428 101.194 C 171.609 100.246,148.763 100.208,147.980 101.148 M172.291 102.970 C 172.603 103.089,173.427 103.932,174.122 104.842 L 175.385 106.496 175.203 113.698 C 174.961 123.217,173.728 126.273,170.090 126.366 C 169.427 126.383,165.269 126.394,160.850 126.390 C 156.432 126.385,152.535 126.533,152.191 126.717 C 151.198 127.248,151.322 192.719,152.317 193.716 C 152.900 194.299,154.030 194.399,161.869 194.564 C 167.765 194.689,171.023 194.903,171.541 195.201 C 172.744 195.891,175.069 198.611,175.083 199.345 C 175.413 216.525,175.500 215.803,172.908 217.327 L 171.134 218.369 162.887 218.369 C 150.442 218.369,150.693 218.599,150.748 207.243 C 150.782 200.393,150.692 198.982,150.084 196.731 C 149.713 195.358,144.699 194.951,137.171 195.683 C 132.063 196.181,130.360 195.709,128.650 193.323 L 127.358 191.520 127.305 182.077 C 127.259 173.885,127.162 172.410,126.569 170.947 C 125.955 169.432,125.908 168.464,126.109 161.465 C 126.452 149.512,126.271 149.322,115.160 149.985 C 104.626 150.613,104.100 150.053,103.908 137.991 C 103.703 125.144,103.379 125.429,117.813 125.728 C 144.734 126.285,150.357 126.230,150.813 125.405 C 151.095 124.895,151.206 121.665,151.152 115.479 C 151.071 106.198,151.266 104.401,152.465 103.404 C 153.452 102.583,170.320 102.213,172.291 102.970 M241.570 102.702 C 243.579 103.466,243.736 104.457,243.547 115.208 C 243.451 120.607,243.329 125.232,243.274 125.487 C 243.097 126.309,241.786 126.437,232.862 126.500 L 224.089 126.563 222.722 125.573 C 220.522 123.979,219.942 121.566,219.845 113.590 C 219.753 106.080,219.978 105.197,222.425 103.424 L 223.918 102.343 232.272 102.343 C 236.867 102.343,241.051 102.504,241.570 102.702 M297.194 126.868 L 298.594 128.151 298.710 136.143 C 298.912 150.106,298.603 150.480,287.189 150.083 L 280.201 149.840 278.627 150.834 C 276.586 152.122,276.507 152.528,276.773 160.287 C 276.966 165.907,276.897 167.204,276.239 170.253 C 275.594 173.247,275.489 175.047,275.521 182.598 C 275.563 192.410,275.688 191.855,272.794 194.704 L 271.700 195.782 260.586 195.509 C 254.473 195.358,248.336 195.357,246.948 195.506 L 244.424 195.776 244.424 204.929 C 244.424 214.837,244.287 215.673,242.380 217.432 L 241.364 218.369 232.286 218.369 C 219.382 218.369,219.605 218.570,219.765 207.123 L 219.869 199.625 221.022 197.751 C 222.752 194.939,223.529 194.746,232.726 194.842 C 244.255 194.962,243.968 195.218,243.506 185.233 C 243.236 179.397,243.196 150.337,243.450 143.580 C 243.523 141.621,243.606 137.235,243.634 133.833 C 243.662 130.431,243.809 127.455,243.961 127.221 C 244.501 126.383,247.419 126.203,261.389 126.142 C 269.174 126.109,275.655 125.970,275.791 125.834 C 275.927 125.697,280.484 125.586,285.916 125.586 L 295.794 125.586 297.194 126.868 M216.537 150.323 C 216.972 150.326,218.126 150.961,219.099 151.734 L 220.870 153.140 220.590 156.326 C 220.435 158.079,220.294 161.453,220.276 163.824 C 220.223 170.771,220.383 170.669,209.604 170.595 C 199.576 170.526,197.397 169.700,197.451 165.990 C 197.639 153.133,197.770 152.458,200.375 150.950 C 201.071 150.546,213.210 149.925,214.995 150.202 C 215.408 150.266,216.101 150.320,216.537 150.323 M145.455 201.500 C 145.455 201.809,145.201 202.062,144.892 202.062 C 144.583 202.062,144.330 201.809,144.330 201.500 C 144.330 201.190,144.583 200.937,144.892 200.937 C 145.201 200.937,145.455 201.190,145.455 201.500 " stroke="none" fill="#6c086e" fill-rule="evenodd"></path><path id="path5" d="M77.846 70.789 C 77.036 71.684,77.064 72.047,78.006 72.854 C 79.140 73.825,80.385 73.531,80.531 72.257 C 80.744 70.404,79.039 69.471,77.846 70.789 M314.527 70.822 C 314.527 71.217,314.316 71.614,314.058 71.704 C 313.307 71.967,314.873 73.477,315.897 73.477 C 316.689 73.477,316.776 73.310,316.776 71.790 C 316.776 70.166,316.734 70.103,315.651 70.103 C 314.793 70.103,314.527 70.273,314.527 70.822 M74.594 75.083 C 75.132 75.355,75.807 76.260,76.197 77.233 L 76.872 78.913 76.655 77.413 C 76.431 75.862,75.360 74.597,74.279 74.607 C 73.872 74.611,73.979 74.772,74.594 75.083 M122.999 76.695 C 123.019 77.709,123.170 78.960,123.334 79.475 C 123.506 80.020,123.547 79.313,123.431 77.788 C 123.196 74.699,122.946 74.065,122.999 76.695 M318.711 75.930 C 318.472 76.456,318.283 77.174,318.292 77.525 C 318.301 77.876,318.546 77.495,318.837 76.678 C 319.442 74.980,319.362 74.503,318.711 75.930 M279.331 78.976 C 279.307 79.217,279.179 79.723,279.045 80.101 C 278.857 80.633,278.907 80.691,279.268 80.358 C 279.524 80.123,279.652 79.617,279.554 79.234 C 279.455 78.851,279.355 78.735,279.331 78.976 M277.972 81.284 C 278.074 81.385,277.969 81.694,277.739 81.971 C 277.221 82.595,277.846 82.641,278.463 82.024 C 279.068 81.419,279.029 81.100,278.351 81.100 C 278.041 81.100,277.871 81.183,277.972 81.284 M134.396 82.474 L 128.772 82.692 134.489 82.771 C 138.103 82.820,140.206 82.711,140.206 82.474 C 140.206 82.268,140.164 82.135,140.112 82.178 C 140.061 82.221,137.488 82.354,134.396 82.474 M254.920 82.568 C 254.920 82.723,259.180 82.814,264.386 82.772 C 273.911 82.694,272.819 82.561,261.199 82.383 C 257.745 82.330,254.920 82.413,254.920 82.568 M118.982 84.514 C 118.609 85.486,119.016 86.408,119.873 86.530 C 120.334 86.596,120.712 86.833,120.712 87.057 C 120.712 87.281,121.050 87.159,121.462 86.785 C 122.881 85.502,122.467 83.974,120.701 83.974 C 119.730 83.974,119.115 84.167,118.982 84.514 M280.769 84.558 C 280.362 85.049,280.440 85.296,281.264 86.121 C 282.444 87.300,283.411 86.819,283.411 85.053 C 283.411 83.803,281.667 83.476,280.769 84.558 M147.204 93.971 C 146.860 94.315,146.887 96.720,147.235 96.719 C 147.390 96.718,147.525 96.043,147.535 95.219 C 147.545 94.395,147.531 93.721,147.503 93.721 C 147.476 93.721,147.341 93.833,147.204 93.971 M113.121 97.750 C 118.121 97.809,126.303 97.809,131.303 97.750 C 136.303 97.691,132.212 97.643,122.212 97.643 C 112.212 97.643,108.121 97.691,113.121 97.750 M146.204 98.020 C 146.204 98.380,145.988 98.488,145.580 98.331 C 145.192 98.182,145.049 98.241,145.201 98.488 C 145.336 98.706,145.068 98.985,144.607 99.109 C 143.392 99.434,143.194 99.399,143.299 98.875 C 143.360 98.573,142.828 98.366,141.799 98.291 C 140.857 98.223,140.206 98.338,140.206 98.573 C 140.206 98.791,140.028 98.969,139.809 98.969 C 139.591 98.969,139.490 98.843,139.585 98.688 C 139.680 98.533,133.069 98.420,124.893 98.436 C 104.151 98.477,104.463 98.465,104.746 99.204 C 104.875 99.539,104.820 100.007,104.624 100.243 C 104.222 100.728,103.890 122.373,104.279 122.769 C 104.416 122.908,104.922 122.798,105.404 122.523 C 106.354 121.982,117.316 121.865,136.370 122.195 C 147.765 122.391,147.936 122.345,147.809 119.119 C 147.321 106.784,147.288 103.209,147.649 102.003 C 147.950 100.999,147.935 100.267,147.592 99.155 C 147.141 97.691,146.204 96.926,146.204 98.020 M248.062 97.705 C 247.945 97.822,247.940 98.154,248.051 98.443 C 248.162 98.733,248.098 98.969,247.908 98.969 C 247.712 98.969,247.525 102.635,247.472 107.498 C 247.421 112.188,247.347 117.010,247.308 118.213 C 247.192 121.702,248.591 122.740,252.999 122.435 C 254.777 122.312,265.671 122.121,277.208 122.011 C 288.744 121.901,298.275 121.718,298.388 121.605 C 298.502 121.492,298.594 116.281,298.594 110.025 L 298.594 98.651 297.095 98.454 C 294.663 98.134,256.225 98.242,256.752 98.568 C 257.101 98.784,257.017 98.921,256.445 99.071 C 256.012 99.184,255.448 99.068,255.192 98.812 C 254.631 98.251,252.041 98.097,251.726 98.606 C 251.373 99.178,250.440 99.033,249.313 98.230 C 248.742 97.824,248.179 97.588,248.062 97.705 M266.073 97.750 C 272.310 97.808,282.516 97.808,288.754 97.750 C 294.991 97.693,289.888 97.646,277.413 97.646 C 264.939 97.646,259.836 97.693,266.073 97.750 M104.004 193.259 C 103.506 195.914,103.619 220.931,104.134 221.831 L 104.613 222.669 94.012 222.788 C 88.182 222.854,91.627 222.898,101.669 222.888 C 114.739 222.873,120.046 222.747,120.350 222.443 C 121.698 221.094,124.468 224.519,123.676 226.554 C 122.842 228.694,122.742 246.567,123.549 248.996 C 123.913 250.090,124.272 250.799,124.348 250.573 C 124.425 250.342,125.096 250.215,125.879 250.284 C 126.646 250.351,131.621 250.465,136.934 250.537 C 147.798 250.684,147.147 250.828,149.596 247.730 L 151.077 245.856 150.890 241.672 C 150.787 239.371,150.630 234.199,150.542 230.178 C 150.355 221.651,150.143 220.918,147.024 218.015 C 145.092 216.216,144.997 216.175,143.838 216.629 C 142.784 217.043,134.968 217.851,131.126 217.944 C 128.859 217.998,128.763 217.711,128.848 211.129 C 128.890 207.895,129.085 204.416,129.281 203.399 C 129.767 200.884,129.560 200.502,125.493 196.395 L 121.945 192.812 119.173 193.319 C 117.649 193.598,114.680 193.817,112.577 193.806 C 110.080 193.792,108.479 193.953,107.964 194.268 C 107.253 194.703,107.045 194.612,105.878 193.346 C 104.296 191.630,104.309 191.630,104.004 193.259 M280.124 192.784 C 279.914 193.041,279.681 193.585,279.606 193.992 C 279.530 194.399,278.081 195.918,276.384 197.366 C 273.018 200.241,272.552 201.423,273.821 203.877 C 275.374 206.879,274.145 217.366,272.167 217.994 C 271.016 218.359,256.344 217.485,253.464 216.879 C 249.857 216.120,250.169 216.051,247.562 218.186 C 244.526 220.673,244.492 220.841,244.306 234.534 C 244.140 246.687,244.099 246.392,246.253 248.672 C 248.294 250.833,249.222 251.205,251.597 250.819 C 255.415 250.198,260.364 249.995,262.823 250.358 C 264.360 250.585,266.973 250.596,269.758 250.388 C 273.337 250.120,274.662 250.165,276.413 250.612 C 277.615 250.920,278.669 251.172,278.756 251.172 C 278.842 251.172,278.913 250.760,278.913 250.256 C 278.913 249.753,279.082 249.237,279.288 249.110 C 279.522 248.965,279.663 245.177,279.663 238.988 C 279.663 232.799,279.522 229.011,279.288 228.866 C 278.743 228.529,278.821 224.054,279.381 223.450 C 279.756 223.046,279.756 222.998,279.381 223.210 C 279.124 223.355,278.913 223.392,278.913 223.292 C 278.913 223.192,279.422 222.856,280.044 222.546 C 280.666 222.236,281.078 222.139,280.959 222.331 C 280.642 222.844,281.311 222.757,281.853 222.215 C 282.211 221.856,282.381 221.852,282.595 222.198 C 282.950 222.772,282.062 222.736,298.219 222.833 C 305.916 222.879,309.170 222.822,305.530 222.704 L 298.969 222.493 298.969 209.747 C 298.969 200.490,298.833 196.407,298.471 194.833 L 297.974 192.665 296.655 193.480 C 294.920 194.552,285.703 194.264,282.598 193.040 C 280.419 192.181,280.598 192.199,280.124 192.784 M144.330 201.500 C 144.330 201.809,144.583 202.062,144.892 202.062 C 145.201 202.062,145.455 201.809,145.455 201.500 C 145.455 201.190,145.201 200.937,144.892 200.937 C 144.583 200.937,144.330 201.190,144.330 201.500 M76.527 250.498 C 76.412 252.777,75.324 253.863,72.727 254.290 C 71.833 254.436,71.838 254.446,72.840 254.494 C 75.143 254.606,77.149 252.485,76.745 250.364 C 76.591 249.553,76.574 249.563,76.527 250.498 M319.025 253.304 C 319.025 253.577,321.328 254.541,321.912 254.512 C 322.283 254.493,322.032 254.318,321.355 254.123 C 320.678 253.927,320.201 253.641,320.297 253.487 C 320.392 253.333,320.145 253.207,319.748 253.207 C 319.350 253.207,319.025 253.250,319.025 253.304 M0.375 254.175 C 0.684 254.373,1.429 254.537,2.031 254.540 C 3.481 254.547,3.165 254.331,1.312 254.047 C 0.291 253.890,-0.008 253.931,0.375 254.175 M77.882 255.701 C 77.055 256.607,77.059 256.903,77.911 257.674 C 79.092 258.743,80.600 258.492,80.600 257.228 C 80.600 255.313,79.038 254.436,77.882 255.701 M314.367 256.101 C 313.648 257.543,314.103 258.294,315.697 258.294 C 316.726 258.294,316.776 258.216,316.776 256.607 C 316.776 254.430,315.350 254.131,314.367 256.101 M122.999 350.172 C 123.019 351.082,123.172 352.249,123.338 352.765 C 123.520 353.327,123.559 352.727,123.436 351.265 C 123.197 348.418,122.945 347.787,122.999 350.172 M175.764 352.040 C 174.181 352.465,171.702 353.891,171.229 354.648 C 170.974 355.056,170.554 355.389,170.294 355.389 C 169.740 355.389,169.679 355.840,170.164 356.345 C 170.551 356.748,170.891 361.024,170.517 360.792 C 169.976 360.456,169.822 362.133,169.822 368.353 L 169.822 374.883 197.563 374.883 L 225.305 374.883 225.305 368.585 C 225.305 365.121,225.147 362.127,224.955 361.931 C 224.513 361.481,224.329 356.230,224.742 355.855 C 224.912 355.702,224.906 355.829,224.730 356.139 C 224.448 356.635,224.496 356.637,225.139 356.151 C 226.253 355.309,226.293 355.251,225.576 355.509 C 225.134 355.667,224.645 355.442,224.121 354.839 C 223.256 353.844,221.360 352.982,218.182 352.137 C 216.049 351.570,177.840 351.483,175.764 352.040 M279.080 352.928 C 278.770 354.582,277.727 355.536,276.489 355.300 C 275.967 355.200,275.539 355.263,275.539 355.441 C 275.539 356.023,277.687 355.779,278.477 355.108 C 279.174 354.516,280.050 351.640,279.534 351.640 C 279.417 351.640,279.213 352.220,279.080 352.928 M125.773 355.389 C 125.114 355.672,125.150 355.714,126.076 355.737 C 126.688 355.753,127.032 355.607,126.898 355.389 C 126.770 355.183,126.634 355.026,126.595 355.040 C 126.555 355.055,126.186 355.212,125.773 355.389 M119.106 357.121 C 118.310 357.916,119.419 360.262,120.590 360.262 C 121.305 360.262,122.272 358.827,122.148 357.950 C 122.023 357.067,119.773 356.454,119.106 357.121 M280.881 357.449 C 280.318 358.089,280.270 358.763,280.787 358.763 C 280.993 358.763,281.162 359.100,281.162 359.513 C 281.162 360.390,282.096 360.507,282.876 359.727 C 283.887 358.715,283.567 356.886,282.381 356.903 C 281.813 356.911,281.139 357.157,280.881 357.449 " stroke="none" fill="#20042d" fill-rule="evenodd"></path></g></svg>