<svg id="svg" version="1.1" xmlns="http://www.w3.org/2000/svg" xmlns:xlink="http://www.w3.org/1999/xlink" width="400" height="377.77777777777777" viewBox="0, 0, 400,377.77777777777777"><g id="svgg"><path id="path0" d="M161.815 73.346 L 161.815 81.664 153.497 81.664 L 145.180 81.664 145.180 89.414 L 145.180 97.164 128.355 97.164 L 111.531 97.164 111.531 107.750 L 111.531 118.336 103.781 118.336 L 96.030 118.336 96.030 126.682 C 96.030 134.290,96.086 135.016,96.665 134.905 C 97.602 134.724,97.919 133.011,97.888 128.301 C 97.843 121.532,98.197 121.208,106.309 120.605 C 114.120 120.025,113.892 120.311,113.992 110.964 C 114.112 99.696,113.528 100.065,131.656 99.811 L 145.164 99.622 146.206 98.579 C 147.221 97.564,147.253 97.396,147.471 92.091 C 147.798 84.128,148.371 83.554,155.980 83.554 C 163.315 83.554,163.685 83.183,163.773 75.728 C 163.885 66.237,157.453 67.265,215.948 67.386 L 264.461 67.486 265.689 68.362 C 267.191 69.433,267.228 69.595,267.471 76.235 C 267.748 83.786,267.506 83.543,274.781 83.575 C 283.037 83.612,283.552 84.123,283.553 92.278 C 283.554 100.099,282.554 99.694,302.098 99.775 C 321.529 99.855,320.117 99.076,320.464 109.910 C 320.799 120.391,320.706 120.246,327.195 120.473 C 336.851 120.810,337.972 121.807,337.988 130.067 C 338.000 136.486,338.389 136.854,345.575 137.255 C 354.269 137.739,353.924 137.000,353.790 154.819 L 353.686 168.620 354.915 168.620 L 356.144 168.620 356.144 151.229 L 356.144 133.837 347.826 133.837 L 339.509 133.837 339.509 125.520 L 339.509 117.202 331.191 117.202 L 322.873 117.202 322.873 107.183 L 322.873 97.164 303.970 97.164 L 285.066 97.164 285.066 88.280 L 285.066 79.395 277.316 79.395 L 269.565 79.395 269.565 72.212 L 269.565 65.028 215.690 65.028 L 161.815 65.028 161.815 73.346 M80.529 137.948 C 80.529 141.133,81.344 142.581,81.847 140.291 C 82.376 137.881,83.434 137.450,89.349 137.233 C 94.657 137.038,96.628 136.578,96.306 135.608 C 96.199 135.287,93.941 135.132,88.343 135.058 L 80.529 134.956 80.529 137.948 M80.653 148.393 C 80.655 149.849,80.723 150.398,80.805 149.613 C 80.887 148.829,80.886 147.638,80.802 146.967 C 80.719 146.296,80.652 146.938,80.653 148.393 M80.529 166.226 L 80.529 170.510 81.979 170.510 C 83.933 170.510,84.128 170.189,82.930 168.939 C 82.051 168.021,81.895 167.491,81.746 164.911 C 81.454 159.869,80.529 160.868,80.529 166.226 M338.217 172.267 C 338.095 172.582,337.992 174.741,337.987 177.063 C 337.975 182.638,337.634 184.008,335.878 185.539 C 335.102 186.215,334.624 186.770,334.814 186.773 C 335.005 186.776,334.905 186.944,334.594 187.146 C 334.199 187.401,334.858 187.514,336.767 187.518 L 339.509 187.524 339.509 179.814 C 339.509 173.509,339.411 172.066,338.973 171.898 C 338.678 171.785,338.338 171.951,338.217 172.267 M96.030 179.934 L 96.030 187.524 98.488 187.524 C 101.057 187.524,102.123 186.436,100.163 185.814 C 98.567 185.307,97.925 183.488,97.900 179.395 C 97.870 174.533,97.538 172.636,96.686 172.472 C 96.081 172.355,96.030 172.936,96.030 179.934 M111.561 195.558 C 111.577 199.976,111.677 203.378,111.782 203.117 C 111.888 202.856,112.122 202.733,112.303 202.845 C 113.784 203.760,114.971 190.492,113.596 188.394 C 111.868 185.756,111.529 186.950,111.561 195.558 M321.314 188.746 C 321.031 189.275,320.849 191.567,320.828 194.890 C 320.773 203.408,321.144 203.794,329.677 204.083 L 335.158 204.269 336.354 205.466 C 338.000 207.111,338.072 207.915,337.930 223.062 C 337.764 240.740,337.854 240.565,328.801 240.755 C 323.157 240.873,321.245 241.275,321.443 242.303 C 321.546 242.838,322.637 242.923,330.534 243.013 L 339.509 243.114 339.509 221.935 L 339.509 200.756 331.191 200.756 L 322.873 200.756 322.873 194.329 C 322.873 187.662,322.538 186.460,321.314 188.746 M92.719 224.102 L 92.817 244.045 102.174 244.146 L 111.531 244.248 111.531 259.153 L 111.531 274.059 112.382 273.896 C 114.437 273.502,114.690 270.978,114.278 254.991 C 113.898 240.213,114.260 240.832,106.006 240.832 C 97.385 240.832,97.723 241.593,97.759 222.306 C 97.784 209.101,97.860 207.232,98.421 206.162 C 99.427 204.242,99.320 204.159,95.838 204.159 L 92.621 204.159 92.719 224.102 M320.477 255.829 C 320.150 260.762,320.226 269.515,320.605 270.699 C 320.771 271.219,320.927 271.474,320.951 271.267 C 320.975 271.059,321.159 271.144,321.361 271.456 C 321.977 272.409,321.851 254.795,321.231 253.321 C 320.745 252.164,320.712 252.272,320.477 255.829 M256.931 254.543 C 252.487 255.299,251.748 256.846,251.423 266.079 C 251.112 274.951,251.728 274.291,243.748 274.291 C 234.442 274.291,233.903 273.807,233.863 265.406 C 233.840 260.480,233.749 259.745,232.968 258.159 C 231.562 255.306,231.882 255.390,222.340 255.365 C 217.643 255.352,212.044 255.226,209.898 255.085 C 203.111 254.639,201.531 256.842,201.518 266.768 C 201.508 273.916,200.637 274.601,191.871 274.354 C 183.562 274.121,184.121 274.693,184.121 266.424 C 184.121 260.452,183.456 257.583,181.653 255.781 L 180.449 254.576 175.007 254.712 C 164.945 254.965,164.276 255.715,164.526 266.471 C 164.701 273.989,163.963 273.483,175.088 273.724 C 185.828 273.957,184.877 273.197,184.877 281.541 L 184.877 287.701 185.980 288.935 L 187.083 290.170 217.194 290.271 C 254.217 290.396,250.662 291.267,250.662 282.071 C 250.662 273.459,250.075 274.081,258.498 273.765 C 266.451 273.467,266.629 273.340,266.918 267.762 C 267.463 257.204,264.484 253.259,256.931 254.543 " stroke="none" fill="#ebbab8" fill-rule="evenodd"></path><path id="path1" d="M165.767 69.359 C 164.311 70.815,164.605 81.034,166.176 83.575 C 166.389 83.920,167.376 83.961,170.092 83.740 C 172.090 83.578,174.064 83.447,174.480 83.450 C 212.047 83.698,264.113 83.491,264.478 83.090 C 266.557 80.816,267.187 71.287,265.378 69.478 L 264.330 68.431 215.513 68.431 L 166.695 68.431 165.767 69.359 M150.015 85.204 C 148.884 86.063,148.582 87.636,148.582 92.671 C 148.582 101.157,149.492 100.705,131.947 100.945 C 113.985 101.191,115.606 100.129,115.320 111.848 L 115.123 119.916 114.062 120.828 C 113.043 121.703,112.778 121.739,107.333 121.739 C 98.844 121.739,98.594 121.984,98.941 129.942 C 99.297 138.078,98.989 138.374,90.179 138.374 L 84.377 138.374 83.408 139.526 L 82.439 140.677 82.642 153.961 C 82.898 170.766,82.248 169.602,91.143 169.180 L 96.652 168.919 97.759 169.870 L 98.866 170.821 99.068 176.999 C 99.285 183.612,99.373 184.043,100.669 184.853 C 102.496 185.995,112.849 185.612,114.104 184.356 C 115.287 183.174,114.717 174.755,113.172 170.578 C 111.354 165.665,111.015 159.269,112.253 153.249 C 112.790 150.642,113.043 147.994,113.043 145.007 C 113.043 137.170,115.230 135.262,123.782 135.640 C 130.690 135.945,131.949 137.192,132.200 143.980 C 132.476 151.443,132.884 151.949,138.810 152.167 C 143.368 152.335,145.637 152.953,148.771 154.877 C 150.989 156.239,151.157 156.278,156.300 156.609 L 161.561 156.947 162.481 156.028 C 164.472 154.037,165.047 146.129,163.704 139.212 C 162.681 133.943,162.558 103.681,163.546 100.189 C 164.272 97.621,164.573 86.384,163.930 85.855 C 162.582 84.745,151.313 84.217,150.015 85.204 M269.448 85.098 C 266.454 85.813,266.522 85.668,266.767 90.843 C 266.888 93.384,267.311 97.505,267.707 100.000 C 268.754 106.589,268.771 130.758,267.733 137.240 C 266.782 143.180,266.843 151.235,267.848 152.345 C 268.885 153.491,270.793 153.871,275.532 153.873 C 282.767 153.877,283.525 153.136,283.804 145.786 C 284.145 136.769,285.232 135.870,296.030 135.676 C 312.438 135.382,317.648 135.544,320.794 136.450 C 325.295 137.746,333.785 138.049,334.881 136.953 C 336.517 135.316,337.447 126.941,336.280 124.352 C 335.204 121.966,334.341 121.705,327.686 121.754 C 319.243 121.817,319.764 122.468,319.825 111.922 C 319.894 99.879,321.716 100.984,301.693 100.926 C 281.296 100.867,282.334 101.340,282.509 92.187 C 282.601 87.438,282.544 86.934,281.812 85.949 L 281.016 84.877 275.952 84.815 C 273.167 84.782,270.240 84.909,269.448 85.098 M211.574 101.974 C 211.424 102.124,209.936 102.252,208.268 102.258 C 205.236 102.268,205.234 102.269,203.899 103.726 L 202.563 105.184 202.718 110.343 C 202.997 119.609,202.490 119.315,217.904 119.157 C 233.396 118.999,232.238 119.628,232.667 111.139 C 232.967 105.194,232.604 104.204,229.525 102.580 C 227.840 101.692,212.378 101.169,211.574 101.974 M339.946 138.927 C 336.838 139.679,336.982 138.989,337.219 151.985 C 337.363 159.877,337.295 164.124,337.004 165.444 C 336.289 168.686,336.123 168.620,344.960 168.620 L 352.642 168.620 352.876 167.202 C 353.619 162.711,353.129 140.784,352.268 139.978 C 350.491 138.312,344.573 137.808,339.946 138.927 M254.820 155.672 C 251.012 157.574,251.030 165.635,254.846 167.580 C 257.039 168.697,263.685 168.534,264.465 167.344 C 265.946 165.084,266.041 157.808,264.613 155.993 C 263.612 154.721,257.148 154.509,254.820 155.672 M325.142 170.635 C 321.380 172.615,320.840 173.760,320.779 179.870 L 320.732 184.504 322.275 184.971 C 324.741 185.717,333.861 185.575,335.087 184.771 C 337.274 183.338,337.542 174.222,335.492 170.983 C 334.841 169.953,326.940 169.688,325.142 170.635 M318.178 185.724 C 317.260 186.407,316.336 186.592,312.696 186.817 C 310.288 186.966,307.467 187.284,306.427 187.523 C 305.388 187.763,300.709 188.079,296.030 188.225 C 284.363 188.591,283.558 189.079,283.555 195.784 C 283.553 202.157,282.934 202.698,275.236 203.059 C 272.221 203.201,268.290 203.596,266.500 203.938 C 262.123 204.773,165.577 204.680,163.327 203.838 C 162.529 203.540,159.902 203.304,156.711 203.244 C 148.824 203.097,147.998 202.365,147.652 195.224 C 147.358 189.153,146.716 188.714,137.465 188.263 C 133.910 188.089,130.330 187.777,129.508 187.569 C 128.687 187.361,125.697 187.073,122.864 186.930 L 117.713 186.668 116.919 187.678 C 115.751 189.163,115.312 191.855,115.312 197.530 C 115.312 200.310,115.206 202.860,115.077 203.197 C 114.726 204.111,112.677 205.078,112.168 204.569 C 111.221 203.622,101.988 204.069,101.000 205.111 C 100.510 205.627,99.965 206.049,99.789 206.049 C 99.020 206.049,98.877 209.385,99.055 223.190 L 99.244 237.874 100.305 238.786 C 101.517 239.828,105.538 240.029,110.586 239.301 C 114.398 238.750,114.796 238.249,114.556 234.298 C 113.718 220.523,115.077 218.155,123.827 218.150 C 129.858 218.146,132.048 221.101,132.223 229.483 C 132.395 237.698,133.465 239.065,139.843 239.212 C 147.501 239.389,148.794 241.061,148.364 250.227 C 148.124 255.351,148.006 256.015,146.784 259.092 C 145.662 261.920,145.503 262.685,145.724 264.196 C 145.868 265.174,146.108 266.841,146.258 267.901 C 146.785 271.633,150.836 275.092,154.820 275.213 C 155.444 275.232,156.210 275.429,156.522 275.650 C 156.946 275.952,156.685 276.007,155.482 275.870 C 154.598 275.769,153.780 275.840,153.664 276.028 C 153.542 276.225,155.321 276.371,157.845 276.371 C 160.832 276.371,162.159 276.243,161.991 275.971 C 161.855 275.752,161.802 271.116,161.873 265.669 C 161.944 260.222,162.002 252.788,162.003 249.149 C 162.004 239.006,162.572 238.510,174.146 238.546 C 186.090 238.583,185.307 237.409,185.756 255.955 C 186.173 273.185,185.895 272.590,193.540 272.590 C 199.951 272.590,199.537 273.896,200.184 251.607 C 200.331 246.549,200.709 241.437,201.148 238.563 C 201.546 235.964,202.033 232.082,202.232 229.937 C 202.888 222.852,202.865 222.864,216.244 222.907 C 228.788 222.948,229.798 223.069,231.566 224.737 L 232.892 225.987 232.900 230.479 C 232.907 234.377,233.039 235.322,233.892 237.618 C 234.931 240.412,235.164 243.682,235.749 263.705 L 235.936 270.132 237.067 271.267 C 238.167 272.370,238.312 272.404,242.379 272.529 C 249.755 272.757,249.433 273.418,249.718 257.467 C 250.040 239.435,249.984 239.590,256.522 238.718 C 263.701 237.760,266.884 238.610,268.609 241.945 C 269.394 243.464,269.734 272.967,268.986 274.756 C 268.238 276.547,266.529 277.223,264.531 276.518 C 262.770 275.896,256.581 275.814,254.929 276.389 C 253.291 276.960,252.930 278.132,252.930 282.885 C 252.930 288.812,251.645 291.272,248.044 292.242 C 245.475 292.934,188.351 292.860,186.727 292.162 C 183.482 290.769,182.656 288.973,182.381 282.715 C 182.079 275.823,182.274 275.990,174.554 275.998 C 171.069 276.002,167.954 276.205,166.635 276.516 C 165.440 276.797,164.425 276.922,164.381 276.793 C 164.337 276.665,164.209 280.388,164.097 285.066 C 163.986 289.745,163.947 293.700,164.011 293.856 C 164.075 294.012,168.286 294.140,173.368 294.140 L 182.609 294.140 182.609 299.622 L 182.609 305.104 217.202 305.104 L 251.796 305.104 251.796 299.622 L 251.796 294.140 259.080 294.140 L 266.365 294.140 267.170 289.944 C 268.002 285.613,268.543 284.412,269.197 285.447 C 269.431 285.818,269.556 284.359,269.559 281.191 L 269.565 276.371 273.440 276.326 C 275.667 276.300,276.833 276.176,276.181 276.034 C 272.338 275.198,281.594 273.722,292.060 273.503 C 296.843 273.403,302.032 273.141,303.592 272.922 C 305.151 272.702,308.842 272.434,311.794 272.325 C 318.581 272.077,318.242 272.399,318.717 265.744 C 319.909 249.058,319.829 241.787,318.436 240.404 C 317.988 239.959,308.262 240.766,306.822 241.367 C 304.453 242.357,304.147 243.313,304.247 249.419 L 304.335 254.822 303.238 256.050 L 302.141 257.278 295.967 257.310 C 282.488 257.379,282.417 257.335,282.641 249.127 C 282.877 240.482,284.109 238.880,290.457 238.965 C 301.562 239.114,303.584 238.445,303.036 234.808 C 302.893 233.858,302.785 232.741,302.795 232.325 C 303.091 220.695,305.169 217.922,313.375 218.206 C 320.120 218.439,321.219 220.178,321.080 230.408 C 320.961 239.258,321.389 239.698,330.125 239.698 C 336.933 239.698,336.843 239.935,336.852 221.981 C 336.861 203.903,337.332 204.915,328.910 204.915 C 319.627 204.915,319.954 205.326,319.783 193.435 C 319.715 188.729,319.575 184.884,319.471 184.890 C 319.367 184.896,318.785 185.271,318.178 185.724 M116.968 240.378 C 115.344 241.431,114.935 248.318,115.842 259.299 C 116.174 263.322,116.375 266.728,116.289 266.867 C 115.888 267.516,116.883 270.939,117.659 271.581 C 118.587 272.348,124.754 272.240,128.045 271.398 C 130.837 270.684,132.030 268.436,130.818 266.172 C 130.584 265.735,130.506 265.023,130.643 264.589 C 131.621 261.508,130.961 243.174,129.827 241.921 C 128.789 240.774,118.298 239.514,116.968 240.378 " stroke="none" fill="#662e14" fill-rule="evenodd"></path><path id="path2" d="M169.943 100.448 C 168.284 100.661,167.258 101.276,166.679 102.404 C 165.946 103.834,165.730 133.199,166.442 134.594 C 168.086 137.813,181.965 138.310,183.662 135.210 C 184.723 133.273,184.641 103.892,183.571 102.311 C 182.254 100.367,176.597 99.593,169.943 100.448 M254.476 100.550 C 251.776 100.992,251.539 101.553,251.232 108.215 C 250.823 117.077,251.126 134.225,251.710 135.247 C 252.730 137.031,256.311 137.869,260.168 137.226 C 265.123 136.400,265.217 136.044,265.217 118.147 C 265.217 101.695,265.032 100.587,262.280 100.551 C 261.608 100.543,259.953 100.477,258.601 100.406 C 257.250 100.335,255.393 100.399,254.476 100.550 M186.867 138.059 C 185.247 138.502,185.066 139.266,185.066 145.681 L 185.066 150.908 186.478 152.202 L 187.891 153.497 216.724 153.495 C 247.838 153.493,247.778 153.496,249.319 151.477 C 251.353 148.810,250.990 139.184,248.812 138.018 C 247.853 137.505,188.749 137.544,186.867 138.059 M118.135 154.623 C 114.637 156.729,114.956 167.846,118.564 169.558 C 120.648 170.547,129.126 170.257,129.942 169.169 C 130.835 167.977,130.487 157.895,129.495 156.238 C 128.161 154.009,120.876 152.973,118.135 154.623 M306.531 154.465 C 304.913 155.343,304.802 155.936,305.011 162.633 C 305.250 170.291,305.049 169.912,308.965 170.070 C 319.301 170.488,320.740 169.586,320.918 162.579 L 321.042 157.687 319.260 155.781 L 317.477 153.875 312.519 153.890 C 308.884 153.901,307.287 154.055,306.531 154.465 M132.968 170.772 C 131.095 170.986,130.936 171.474,130.869 177.200 C 130.782 184.660,131.211 185.061,139.149 184.938 C 143.846 184.866,144.568 184.950,147.845 185.951 C 152.032 187.231,156.247 187.727,158.295 187.181 C 159.087 186.970,160.382 186.755,161.172 186.704 C 163.231 186.570,163.277 186.418,163.199 179.958 C 163.099 171.718,163.032 171.648,155.209 171.637 C 152.292 171.633,148.800 171.478,147.448 171.293 C 144.472 170.886,134.961 170.544,132.968 170.772 M271.340 170.931 C 268.313 171.733,267.780 172.856,267.489 179.051 C 267.159 186.063,267.136 186.159,265.660 186.693 C 264.717 187.034,253.492 187.157,220.200 187.192 C 195.886 187.217,173.612 187.345,170.703 187.475 L 165.414 187.713 164.895 188.799 C 164.208 190.235,164.196 198.658,164.879 199.481 C 166.479 201.409,164.271 201.317,211.153 201.409 C 271.261 201.528,266.702 201.993,266.772 195.734 C 266.819 191.534,267.165 188.349,267.663 187.543 C 267.902 187.156,269.852 186.962,275.672 186.748 C 282.458 186.499,283.585 186.366,285.235 185.621 C 286.997 184.825,287.468 184.787,293.364 184.972 C 299.881 185.176,302.115 184.848,303.686 183.456 C 304.525 182.713,304.662 173.231,303.857 171.645 L 303.378 170.699 287.796 170.699 C 279.226 170.699,271.821 170.804,271.340 170.931 M170.132 246.881 C 170.132 247.297,170.296 247.637,170.497 247.637 C 170.698 247.637,171.044 247.297,171.267 246.881 C 171.610 246.240,171.554 246.125,170.902 246.125 C 170.384 246.125,170.132 246.372,170.132 246.881 M214.367 254.799 L 211.153 255.009 213.800 255.290 C 217.524 255.686,223.145 255.634,223.819 255.198 C 224.212 254.944,223.498 254.830,221.486 254.826 C 219.892 254.823,218.361 254.768,218.084 254.705 C 217.807 254.641,216.134 254.684,214.367 254.799 " stroke="none" fill="#fbae3a" fill-rule="evenodd"></path><path id="path3" d="M166.048 67.926 C 164.136 68.873,163.842 69.884,163.773 75.728 C 163.685 83.183,163.315 83.554,155.980 83.554 C 148.371 83.554,147.798 84.128,147.471 92.091 C 147.253 97.396,147.221 97.564,146.206 98.579 L 145.164 99.622 131.656 99.811 C 113.528 100.065,114.112 99.696,113.992 110.964 C 113.892 120.311,114.120 120.025,106.309 120.605 C 98.240 121.204,97.839 121.562,97.891 128.102 C 97.931 133.027,97.662 134.633,96.761 134.869 C 96.388 134.966,96.169 135.272,96.275 135.547 C 96.667 136.569,94.757 137.034,89.349 137.233 C 83.434 137.450,82.376 137.881,81.847 140.291 C 81.709 140.917,81.422 141.282,81.149 141.178 C 80.788 141.039,80.688 143.349,80.701 151.502 C 80.714 159.062,80.837 161.982,81.143 161.925 C 81.417 161.874,81.630 162.917,81.743 164.864 C 81.895 167.494,82.048 168.018,82.930 168.939 C 83.487 169.520,83.827 170.112,83.685 170.253 C 83.544 170.395,86.263 170.510,89.729 170.510 L 96.030 170.510 96.030 171.411 C 96.030 171.969,96.296 172.382,96.728 172.495 C 97.580 172.718,97.920 174.776,97.922 179.731 C 97.924 183.473,98.604 185.319,100.163 185.814 C 100.598 185.952,100.945 186.386,100.945 186.793 C 100.945 187.485,101.267 187.524,106.986 187.524 C 114.682 187.524,114.222 187.021,114.018 195.212 C 113.871 201.072,113.333 203.482,112.310 202.850 C 111.731 202.491,111.490 203.902,112.037 204.449 C 112.497 204.909,112.729 204.902,113.707 204.396 C 115.246 203.600,115.312 203.318,115.312 197.530 C 115.312 191.855,115.751 189.163,116.919 187.678 L 117.713 186.668 122.864 186.930 C 125.697 187.073,128.687 187.361,129.508 187.569 C 130.330 187.777,133.910 188.089,137.465 188.263 C 146.716 188.714,147.358 189.153,147.652 195.224 C 147.998 202.365,148.824 203.097,156.711 203.244 C 159.902 203.304,162.529 203.540,163.327 203.838 C 165.577 204.680,262.123 204.773,266.500 203.938 C 268.290 203.596,272.221 203.201,275.236 203.059 C 282.934 202.698,283.553 202.157,283.555 195.784 C 283.558 189.079,284.363 188.591,296.030 188.225 C 300.709 188.079,305.388 187.763,306.427 187.523 C 307.467 187.284,310.283 186.966,312.685 186.818 C 316.312 186.593,317.252 186.406,318.226 185.712 C 318.871 185.253,319.457 184.877,319.529 184.878 C 319.601 184.878,319.715 188.729,319.783 193.435 C 319.954 205.326,319.627 204.915,328.910 204.915 C 337.332 204.915,336.861 203.903,336.852 221.981 C 336.843 239.935,336.933 239.698,330.125 239.698 C 321.389 239.698,320.961 239.258,321.080 230.408 C 321.219 220.178,320.120 218.439,313.375 218.206 C 305.169 217.922,303.091 220.695,302.795 232.325 C 302.785 232.741,302.893 233.858,303.036 234.808 C 303.584 238.445,301.562 239.114,290.457 238.965 C 284.109 238.880,282.877 240.482,282.641 249.127 C 282.417 257.335,282.488 257.379,295.967 257.310 L 302.141 257.278 303.238 256.050 L 304.335 254.822 304.247 249.419 C 304.147 243.313,304.453 242.357,306.822 241.367 C 308.262 240.766,317.988 239.959,318.436 240.404 C 319.829 241.787,319.909 249.058,318.717 265.744 C 318.242 272.399,318.581 272.077,311.794 272.325 C 308.842 272.434,305.151 272.702,303.592 272.922 C 302.032 273.141,296.843 273.403,292.060 273.503 C 283.456 273.683,276.537 274.540,275.527 275.551 C 274.803 276.274,279.189 276.405,300.378 276.293 L 321.550 276.181 321.669 274.510 C 321.807 272.580,321.484 270.957,321.018 271.245 C 320.233 271.730,319.953 263.742,320.477 255.821 C 320.707 252.361,320.759 252.173,321.219 253.174 C 321.647 254.107,321.703 253.397,321.632 247.927 L 321.550 241.600 322.495 241.234 C 323.015 241.032,325.853 240.817,328.801 240.755 C 337.854 240.565,337.764 240.740,337.930 223.062 C 338.072 207.915,338.000 207.111,336.354 205.466 L 335.158 204.269 329.677 204.083 C 321.223 203.796,320.780 203.357,320.815 195.274 C 320.849 187.313,320.633 187.527,328.664 187.518 C 331.613 187.515,334.282 187.347,334.594 187.146 C 334.905 186.944,335.005 186.776,334.814 186.773 C 334.624 186.770,335.102 186.215,335.878 185.539 C 337.634 184.008,337.975 182.638,337.987 177.063 C 337.997 172.452,338.162 171.587,338.973 171.898 C 339.387 172.057,339.509 171.710,339.509 170.362 C 339.509 168.685,339.467 168.620,338.393 168.620 C 336.850 168.620,336.487 167.788,337.004 165.444 C 337.295 164.124,337.363 159.877,337.219 151.985 C 337.061 143.312,337.121 140.327,337.462 139.941 C 338.686 138.554,348.019 137.806,350.579 138.889 C 353.285 140.035,353.184 139.382,353.050 154.784 C 352.971 163.894,353.059 168.577,353.308 168.494 C 354.001 168.263,353.999 141.223,353.306 139.883 C 352.365 138.062,350.854 137.549,345.575 137.255 C 338.389 136.854,338.000 136.486,337.988 130.067 C 337.972 121.807,336.851 120.810,327.195 120.473 C 320.706 120.246,320.799 120.391,320.464 109.910 C 320.117 99.076,321.529 99.855,302.098 99.775 C 282.554 99.694,283.554 100.099,283.553 92.278 C 283.552 84.123,283.037 83.612,274.781 83.575 C 267.506 83.543,267.748 83.786,267.471 76.235 C 267.228 69.595,267.191 69.433,265.689 68.362 L 264.461 67.486 215.879 67.397 C 171.556 67.316,167.187 67.362,166.048 67.926 M265.378 69.478 C 267.187 71.287,266.557 80.816,264.478 83.090 C 264.113 83.491,212.047 83.698,174.480 83.450 C 174.064 83.447,172.090 83.578,170.092 83.740 C 167.376 83.961,166.389 83.920,166.176 83.575 C 164.605 81.034,164.311 70.815,165.767 69.359 L 166.695 68.431 215.513 68.431 L 264.330 68.431 265.378 69.478 M161.273 85.101 C 162.507 85.328,163.702 85.667,163.930 85.855 C 164.573 86.384,164.272 97.621,163.546 100.189 C 162.558 103.681,162.681 133.943,163.704 139.212 C 165.047 146.129,164.472 154.037,162.481 156.028 L 161.561 156.947 156.300 156.609 C 151.157 156.278,150.989 156.239,148.771 154.877 C 145.637 152.953,143.368 152.335,138.810 152.167 C 132.884 151.949,132.476 151.443,132.200 143.980 C 131.949 137.192,130.690 135.945,123.782 135.640 C 115.230 135.262,113.043 137.170,113.043 145.007 C 113.043 147.994,112.790 150.642,112.253 153.249 C 111.015 159.269,111.354 165.665,113.172 170.578 C 114.717 174.755,115.287 183.174,114.104 184.356 C 112.849 185.612,102.496 185.995,100.669 184.853 C 99.373 184.043,99.285 183.612,99.068 176.999 L 98.866 170.821 97.759 169.870 L 96.652 168.919 91.143 169.180 C 82.248 169.602,82.898 170.766,82.642 153.961 L 82.439 140.677 83.408 139.526 L 84.377 138.374 90.179 138.374 C 98.989 138.374,99.297 138.078,98.941 129.942 C 98.594 121.984,98.844 121.739,107.333 121.739 C 112.778 121.739,113.043 121.703,114.062 120.828 L 115.123 119.916 115.320 111.848 C 115.606 100.129,113.985 101.191,131.947 100.945 C 149.492 100.705,148.582 101.157,148.582 92.671 C 148.582 87.636,148.884 86.063,150.015 85.204 C 150.832 84.583,158.097 84.516,161.273 85.101 M281.812 85.949 C 282.544 86.934,282.601 87.438,282.509 92.187 C 282.334 101.340,281.296 100.867,301.693 100.926 C 321.716 100.984,319.894 99.879,319.825 111.922 C 319.764 122.468,319.243 121.817,327.686 121.754 C 334.341 121.705,335.204 121.966,336.280 124.352 C 337.447 126.941,336.517 135.316,334.881 136.953 C 333.785 138.049,325.295 137.746,320.794 136.450 C 317.648 135.544,312.438 135.382,296.030 135.676 C 285.232 135.870,284.145 136.769,283.804 145.786 C 283.525 153.136,282.767 153.877,275.532 153.873 C 270.793 153.871,268.885 153.491,267.848 152.345 C 266.843 151.235,266.782 143.180,267.733 137.240 C 268.771 130.758,268.754 106.589,267.707 100.000 C 266.556 92.753,266.361 86.323,267.278 85.832 C 268.797 85.019,271.047 84.756,275.952 84.815 L 281.016 84.877 281.812 85.949 M181.598 100.705 C 184.348 101.853,184.310 101.603,184.310 118.715 C 184.310 138.391,184.797 137.519,174.035 137.111 C 165.602 136.791,165.932 137.561,166.063 118.526 C 166.174 102.475,166.239 101.885,168.000 101.000 C 169.779 100.106,179.653 99.892,181.598 100.705 M262.280 100.551 C 265.032 100.587,265.217 101.695,265.217 118.147 C 265.217 136.044,265.123 136.400,260.168 137.226 C 256.311 137.869,252.730 137.031,251.710 135.247 C 251.126 134.225,250.823 117.077,251.232 108.215 C 251.586 100.539,252.038 100.060,258.601 100.406 C 259.953 100.477,261.608 100.543,262.280 100.551 M229.525 102.580 C 232.604 104.204,232.967 105.194,232.667 111.139 C 232.238 119.628,233.396 118.999,217.904 119.157 C 202.490 119.315,202.997 119.609,202.718 110.343 L 202.563 105.184 203.899 103.726 C 205.234 102.269,205.236 102.268,208.268 102.258 C 209.936 102.252,211.424 102.124,211.574 101.974 C 212.378 101.169,227.840 101.692,229.525 102.580 M248.812 138.018 C 250.990 139.184,251.353 148.810,249.319 151.477 C 247.778 153.496,247.838 153.493,216.724 153.495 L 187.891 153.497 186.478 152.202 L 185.066 150.908 185.066 145.681 C 185.066 139.266,185.247 138.502,186.867 138.059 C 188.749 137.544,247.853 137.505,248.812 138.018 M127.234 154.445 C 129.786 155.390,130.208 156.537,130.363 162.949 C 130.537 170.181,130.794 169.859,124.674 170.063 C 116.951 170.320,115.947 169.419,115.904 162.193 C 115.876 157.407,116.387 155.676,118.135 154.623 C 119.458 153.826,125.258 153.713,127.234 154.445 M319.260 155.781 L 321.042 157.687 320.918 162.579 C 320.740 169.586,319.301 170.488,308.965 170.070 C 305.049 169.912,305.250 170.291,305.011 162.633 C 304.740 153.931,304.754 153.914,312.519 153.890 L 317.477 153.875 319.260 155.781 M264.613 155.993 C 266.041 157.808,265.946 165.084,264.465 167.344 C 263.685 168.534,257.039 168.697,254.846 167.580 C 251.030 165.635,251.012 157.574,254.820 155.672 C 257.148 154.509,263.612 154.721,264.613 155.993 M335.492 170.983 C 337.542 174.222,337.274 183.338,335.087 184.771 C 333.861 185.575,324.741 185.717,322.275 184.971 L 320.732 184.504 320.779 179.870 C 320.840 173.760,321.380 172.615,325.142 170.635 C 326.940 169.688,334.841 169.953,335.492 170.983 M147.448 171.293 C 148.800 171.478,152.292 171.633,155.209 171.637 C 163.032 171.648,163.099 171.718,163.199 179.958 C 163.277 186.418,163.231 186.570,161.172 186.704 C 160.382 186.755,159.087 186.970,158.295 187.181 C 156.247 187.727,152.032 187.231,147.845 185.951 C 144.568 184.950,143.846 184.866,139.149 184.938 C 131.211 185.061,130.782 184.660,130.869 177.200 C 130.936 171.474,131.095 170.986,132.968 170.772 C 134.961 170.544,144.472 170.886,147.448 171.293 M303.857 171.645 C 304.662 173.231,304.525 182.713,303.686 183.456 C 302.115 184.848,299.881 185.176,293.364 184.972 C 287.468 184.787,286.997 184.825,285.235 185.621 C 283.585 186.366,282.458 186.499,275.672 186.748 C 269.852 186.962,267.902 187.156,267.663 187.543 C 267.165 188.349,266.819 191.534,266.772 195.734 C 266.702 201.993,271.261 201.528,211.153 201.409 C 164.271 201.317,166.479 201.409,164.879 199.481 C 164.196 198.658,164.208 190.235,164.895 188.799 L 165.414 187.713 170.703 187.475 C 173.612 187.345,195.886 187.217,220.200 187.192 C 253.492 187.157,264.717 187.034,265.660 186.693 C 267.136 186.159,267.159 186.063,267.489 179.051 C 267.780 172.856,268.313 171.733,271.340 170.931 C 271.821 170.804,279.226 170.699,287.796 170.699 L 303.378 170.699 303.857 171.645 M98.505 205.956 C 97.817 207.628,97.765 208.753,97.749 222.495 C 97.726 241.564,97.397 240.832,106.006 240.832 C 114.260 240.832,113.898 240.213,114.278 254.991 C 114.685 270.784,114.416 273.590,112.466 273.876 C 111.920 273.956,111.720 274.279,111.720 275.083 L 111.720 276.181 132.492 276.279 C 144.462 276.336,153.408 276.233,153.604 276.036 C 153.792 275.849,154.652 275.776,155.517 275.874 C 156.697 276.008,156.947 275.952,156.522 275.650 C 156.210 275.429,155.444 275.232,154.820 275.213 C 150.836 275.092,146.785 271.633,146.258 267.901 C 146.108 266.841,145.868 265.174,145.724 264.196 C 145.503 262.685,145.662 261.920,146.784 259.092 C 148.006 256.015,148.124 255.351,148.364 250.227 C 148.794 241.061,147.501 239.389,139.843 239.212 C 133.465 239.065,132.395 237.698,132.223 229.483 C 132.048 221.101,129.858 218.146,123.827 218.150 C 115.077 218.155,113.718 220.523,114.556 234.298 C 114.796 238.249,114.398 238.750,110.586 239.301 C 105.538 240.029,101.517 239.828,100.305 238.786 L 99.244 237.874 99.055 223.190 C 98.853 207.482,98.930 206.446,100.358 205.682 C 101.833 204.892,101.883 204.159,100.461 204.160 C 99.365 204.161,99.170 204.341,98.505 205.956 M206.119 223.028 C 203.624 223.679,202.278 225.872,202.269 229.301 C 202.267 230.132,201.902 233.110,201.459 235.917 C 200.953 239.123,200.543 244.113,200.357 249.338 C 199.462 274.498,200.017 272.590,193.590 272.590 C 185.887 272.590,186.174 273.200,185.756 255.955 C 185.307 237.409,186.090 238.583,174.146 238.546 C 162.572 238.510,162.004 239.006,162.003 249.149 C 162.002 252.788,161.944 260.222,161.873 265.669 C 161.738 276.002,161.776 276.371,162.971 276.371 C 163.673 276.371,163.709 276.736,163.788 284.783 L 163.872 293.195 164.083 284.877 C 164.199 280.302,164.332 276.665,164.378 276.793 C 164.424 276.922,165.440 276.797,166.635 276.516 C 167.954 276.205,171.069 276.002,174.554 275.998 C 182.274 275.990,182.079 275.823,182.381 282.715 C 182.656 288.973,183.482 290.769,186.727 292.162 C 188.351 292.860,245.475 292.934,248.044 292.242 C 251.645 291.272,252.930 288.812,252.930 282.885 C 252.930 278.132,253.291 276.960,254.929 276.389 C 256.581 275.814,262.770 275.896,264.531 276.518 C 266.529 277.223,268.238 276.547,268.986 274.756 C 269.734 272.967,269.394 243.464,268.609 241.945 C 266.884 238.610,263.701 237.760,256.522 238.718 C 249.984 239.590,250.040 239.435,249.718 257.467 C 249.433 273.418,249.755 272.757,242.379 272.529 C 238.312 272.404,238.167 272.370,237.067 271.267 L 235.936 270.132 235.749 263.705 C 235.164 243.682,234.931 240.412,233.892 237.618 C 233.039 235.322,232.907 234.377,232.900 230.479 L 232.892 225.987 231.594 224.763 C 230.880 224.089,229.816 223.437,229.231 223.313 C 227.415 222.929,207.444 222.683,206.119 223.028 M127.675 240.897 C 129.663 241.398,130.301 242.096,130.734 244.241 C 131.114 246.127,131.037 263.348,130.643 264.589 C 130.506 265.023,130.584 265.735,130.818 266.172 C 132.030 268.436,130.837 270.684,128.045 271.398 C 124.754 272.240,118.587 272.348,117.659 271.581 C 116.883 270.939,115.888 267.516,116.289 266.867 C 116.375 266.728,116.174 263.322,115.842 259.299 C 114.935 248.318,115.344 241.431,116.968 240.378 C 117.534 240.010,125.735 240.408,127.675 240.897 M171.267 246.881 C 171.044 247.297,170.698 247.637,170.497 247.637 C 170.296 247.637,170.132 247.297,170.132 246.881 C 170.132 246.372,170.384 246.125,170.902 246.125 C 171.554 246.125,171.610 246.240,171.267 246.881 M264.330 255.817 C 266.445 257.730,267.245 261.425,266.918 267.762 C 266.629 273.340,266.451 273.467,258.498 273.765 C 250.075 274.081,250.662 273.459,250.662 282.071 C 250.662 291.267,254.217 290.396,217.194 290.271 L 187.083 290.170 185.980 288.935 L 184.877 287.701 184.877 281.541 C 184.877 273.197,185.828 273.957,175.088 273.724 C 163.963 273.483,164.701 273.989,164.526 266.471 C 164.280 255.882,165.004 255.015,174.405 254.653 L 180.299 254.426 181.578 255.706 C 183.463 257.590,184.121 260.365,184.121 266.424 C 184.121 274.693,183.562 274.121,191.871 274.354 C 200.637 274.601,201.508 273.916,201.518 266.768 C 201.532 256.460,202.777 254.949,211.342 254.845 C 214.357 254.809,217.079 254.750,217.391 254.716 C 219.459 254.487,230.546 255.340,231.242 255.781 C 233.161 256.998,233.835 259.474,233.863 265.406 C 233.903 273.807,234.442 274.291,243.748 274.291 C 251.728 274.291,251.112 274.951,251.423 266.079 C 251.690 258.490,252.054 257.008,253.993 255.627 C 256.278 254.000,262.446 254.114,264.330 255.817 M268.063 285.984 C 267.687 286.973,266.541 292.736,266.541 293.637 C 266.541 294.040,266.918 294.154,267.958 294.068 L 269.376 293.951 269.487 290.359 C 269.639 285.444,269.007 283.502,268.063 285.984 " stroke="none" fill="#d78232" fill-rule="evenodd"></path></g></svg>